<?xml version="1.0" standalone="no"?>
<!DOCTYPE svg PUBLIC "-//W3C//DTD SVG 20010904//EN"
 "http://www.w3.org/TR/2001/REC-SVG-20010904/DTD/svg10.dtd">
<svg version="1.0" xmlns="http://www.w3.org/2000/svg"
 width="831.000000pt" height="602.000000pt" viewBox="0 0 831.000000 602.000000"
 preserveAspectRatio="xMidYMid meet">

<g transform="translate(0.000000,602.000000) scale(0.100000,-0.100000)"
fill="#000000" stroke="none">
<path d="M2140 3183 c0 -1440 -3 -2716 -7 -2835 l-6 -218 3011 0 3012 0 0 500
c0 327 3 500 10 500 6 0 10 11 10 25 0 20 -5 25 -25 25 -20 0 -25 -5 -25 -25
0 -14 5 -25 10 -25 6 0 10 -42 10 -105 l0 -105 -745 0 -745 0 0 110 0 110 730
0 c480 0 730 3 730 10 0 7 -250 10 -730 10 l-730 0 0 115 0 115 745 0 745 0 0
-100 c0 -69 4 -100 12 -100 8 0 9 43 5 167 -4 91 -7 1128 -7 2305 l0 2138
-3005 0 -3005 0 0 -2617z m1500 1552 l0 -1055 -745 0 -745 0 0 1055 0 1055
745 0 745 0 0 -1055z m1500 0 l0 -1055 -745 0 -745 0 0 1055 0 1055 745 0 745
0 0 -1055z m1500 0 l0 -1055 -745 0 -745 0 0 1055 0 1055 745 0 745 0 0 -1055z
m1500 0 l0 -1055 -745 0 -745 0 0 1055 0 1055 745 0 745 0 0 -1055z m-4500
-1700 l0 -635 -745 0 -745 0 0 635 0 635 745 0 745 0 0 -635z m1500 0 l0 -635
-745 0 -745 0 0 635 0 635 745 0 745 0 0 -635z m1500 0 l0 -635 -745 0 -745 0
0 635 0 635 745 0 745 0 0 -635z m1500 0 l0 -635 -745 0 -745 0 0 635 0 635
745 0 745 0 0 -635z m-4500 -1380 l0 -735 -745 0 -745 0 0 735 0 735 745 0
745 0 0 -735z m1500 0 l0 -735 -745 0 -745 0 0 735 0 735 745 0 745 0 0 -735z
m1498 0 l-3 -735 -742 0 -743 0 0 735 0 735 745 0 746 0 -3 -735z m1502 245
l0 -490 -745 0 -745 0 0 490 0 490 745 0 745 0 0 -490z m-4500 -1235 l0 -245
-745 0 -745 0 0 245 0 245 745 0 745 0 0 -245z m1500 0 l0 -245 -745 0 -745 0
0 245 0 245 745 0 745 0 0 -245z m1500 0 l0 -245 -745 0 -745 0 0 245 0 245
745 0 745 0 0 -245z m1500 0 l0 -245 -745 0 -745 0 0 245 0 245 745 0 745 0 0
-245z m-4510 -390 l0 -125 -740 0 -740 0 0 125 0 125 740 0 740 0 0 -125z
m1500 0 l0 -125 -740 0 -740 0 0 125 0 125 740 0 740 0 0 -125z m1500 0 l0
-125 -740 0 -740 0 0 125 0 125 740 0 740 0 0 -125z m1500 0 l0 -125 -740 0
-740 0 0 125 0 125 740 0 740 0 0 -125z"/>
<path d="M2226 5497 c-12 -9 -17 -23 -14 -46 4 -43 27 -59 65 -45 51 17 41
104 -11 104 -12 0 -30 -6 -40 -13z m59 -42 c0 -25 -4 -30 -25 -30 -16 0 -26 6
-28 18 -6 30 6 49 30 45 18 -2 23 -9 23 -33z"/>
<path d="M2338 5459 c15 -47 35 -70 48 -56 3 2 14 28 24 56 24 62 7 69 -19 9
l-18 -43 -13 43 c-7 23 -19 42 -26 42 -9 0 -8 -12 4 -51z"/>
<path d="M2440 5455 l0 -55 35 0 c19 0 35 5 35 10 0 6 -9 10 -20 10 -11 0 -20
7 -20 15 0 8 7 15 15 15 8 0 15 5 15 10 0 6 -7 10 -15 10 -8 0 -15 5 -15 10 0
6 9 10 20 10 11 0 20 5 20 10 0 6 -16 10 -35 10 l-35 0 0 -55z"/>
<path d="M2530 5454 c0 -40 3 -55 13 -51 6 2 12 10 12 17 0 22 23 23 30 1 7
-22 49 -29 60 -11 9 14 52 13 57 -1 2 -7 9 -10 15 -8 14 5 -25 109 -42 109 -7
0 -20 -21 -30 -47 -22 -60 -22 -60 -39 -38 -10 14 -11 23 -3 36 15 24 -7 49
-44 49 -28 0 -29 -1 -29 -56z m55 27 c7 -12 -12 -24 -25 -16 -11 7 -4 25 10
25 5 0 11 -4 15 -9z m104 -33 c1 -5 -6 -8 -14 -8 -16 0 -19 9 -8 36 6 16 7 16
14 -2 4 -10 8 -22 8 -26z"/>
<path d="M2740 5455 l0 -55 35 0 c19 0 35 5 35 10 0 6 -9 10 -20 10 -17 0 -20
7 -20 45 0 33 -4 45 -15 45 -12 0 -15 -13 -15 -55z"/>
<path d="M2820 5455 l0 -55 35 0 c19 0 35 5 35 10 0 6 -9 10 -20 10 -17 0 -20
7 -20 45 0 33 -4 45 -15 45 -12 0 -15 -13 -15 -55z"/>
<path d="M2940 5456 c0 -43 3 -56 15 -56 8 0 15 9 15 19 0 12 9 21 26 25 20 5
25 12 22 34 -3 23 -8 27 -40 30 l-38 3 0 -55z m60 19 c0 -8 -7 -15 -15 -15 -8
0 -15 7 -15 15 0 8 7 15 15 15 8 0 15 -7 15 -15z"/>
<path d="M3040 5455 c0 -30 5 -55 10 -55 6 0 10 9 10 20 0 11 6 20 14 20 8 0
18 -9 21 -20 3 -11 13 -20 22 -20 14 0 14 3 -1 24 -10 15 -12 27 -6 31 16 10
12 42 -6 49 -9 3 -27 6 -40 6 -22 0 -24 -3 -24 -55z m55 26 c7 -12 -12 -24
-25 -16 -11 7 -4 25 10 25 5 0 11 -4 15 -9z"/>
<path d="M3156 5497 c-12 -9 -17 -23 -14 -46 4 -43 27 -59 65 -45 51 17 41
104 -11 104 -12 0 -30 -6 -40 -13z m59 -42 c0 -25 -4 -30 -25 -30 -16 0 -26 6
-28 18 -6 30 6 49 30 45 18 -2 23 -9 23 -33z"/>
<path d="M3280 5470 c0 -27 -5 -43 -15 -46 -21 -9 -19 -24 4 -24 10 0 22 7 25
16 10 25 7 94 -4 94 -5 0 -10 -18 -10 -40z"/>
<path d="M3320 5455 l0 -55 35 0 c19 0 35 5 35 10 0 6 -9 10 -20 10 -11 0 -20
7 -20 15 0 8 7 15 15 15 8 0 15 5 15 10 0 6 -7 10 -15 10 -8 0 -15 5 -15 10 0
6 9 10 20 10 11 0 20 5 20 10 0 6 -16 10 -35 10 l-35 0 0 -55z"/>
<path d="M3426 5495 c-20 -20 -21 -68 -2 -85 17 -14 58 -10 63 6 2 7 -5 10
-21 7 -18 -4 -26 0 -31 17 -8 27 12 53 37 46 12 -3 18 0 15 7 -6 19 -43 20
-61 2z"/>
<path d="M3500 5500 c0 -5 7 -10 15 -10 11 0 15 -12 15 -45 0 -33 4 -45 15
-45 11 0 15 12 15 45 0 33 4 45 15 45 8 0 15 5 15 10 0 6 -20 10 -45 10 -25 0
-45 -4 -45 -10z"/>
<path d="M2756 5045 c-20 -20 -21 -68 -2 -85 17 -14 58 -10 63 6 2 7 -5 10
-21 7 -18 -4 -26 0 -30 15 -10 32 4 54 31 49 15 -3 22 0 20 7 -6 18 -43 18
-61 1z"/>
<path d="M3007 5036 c-3 -8 -1 -31 4 -50 7 -26 16 -36 29 -36 11 0 20 5 20 10
0 6 -4 10 -10 10 -14 0 -12 38 2 42 9 3 8 9 -4 21 -20 21 -34 22 -41 3z"/>
<path d="M2852 5018 c-22 -22 -14 -57 13 -64 31 -8 55 10 55 41 0 33 -44 47
-68 23z m48 -28 c0 -13 -7 -20 -20 -20 -19 0 -27 20 -13 33 13 14 33 6 33 -13z"/>
<path d="M2944 5015 c-4 -9 1 -22 12 -31 18 -15 18 -15 1 -10 -12 4 -17 2 -15
-6 7 -20 37 -21 45 -2 4 11 -1 22 -13 32 -18 14 -18 14 -1 8 13 -4 17 -2 15 6
-7 20 -37 22 -44 3z"/>
<path d="M2261 4559 c-28 -23 -22 -45 15 -59 32 -13 26 -35 -9 -35 -31 1 -32
-1 -12 -21 8 -9 15 -11 15 -6 0 5 9 12 20 15 29 8 26 45 -5 57 -30 11 -33 37
-5 42 12 2 17 7 12 15 -5 8 -14 6 -31 -8z"/>
<path d="M3086 4551 c-4 -5 3 -7 14 -4 29 8 37 -23 13 -50 -38 -41 -37 -47 4
-46 31 2 33 3 10 6 l-28 4 26 30 c20 24 23 34 15 50 -11 20 -45 26 -54 10z"/>
<path d="M3193 4553 c-7 -2 -13 -9 -13 -14 0 -6 5 -7 10 -4 6 4 10 -10 10 -34
0 -22 -5 -42 -12 -44 -7 -3 3 -5 22 -5 19 0 29 2 23 5 -8 3 -13 24 -13 54 0
48 -3 52 -27 42z"/>
<path d="M3300 4535 c0 -20 5 -25 25 -25 20 0 25 -5 25 -26 0 -23 -3 -26 -25
-22 -14 3 -25 1 -25 -3 0 -15 47 -10 60 6 16 19 6 45 -20 52 -27 7 -25 31 3
36 16 3 13 5 -10 6 -29 1 -33 -2 -33 -24z"/>
<path d="M3417 4553 l33 -4 -25 -50 c-14 -27 -21 -49 -16 -49 10 0 51 83 51
101 0 5 -17 8 -37 7 -37 -1 -37 -1 -6 -5z"/>
<path d="M3495 4523 l-25 -38 30 -3 c20 -2 30 -9 31 -20 0 -14 2 -14 6 -2 3 8
11 18 17 22 8 5 7 8 -1 8 -8 0 -13 14 -13 35 0 45 -13 44 -45 -2z m32 -30 c-3
-3 -13 -3 -21 -1 -15 3 -15 6 1 28 l18 25 3 -23 c2 -13 1 -26 -1 -29z"/>
<path d="M3265 4450 c-4 -12 -5 -24 -2 -27 3 -2 8 5 12 17 4 12 5 24 2 27 -3
2 -8 -5 -12 -17z"/>
<path d="M2261 4319 c-28 -23 -22 -45 15 -59 32 -13 26 -35 -9 -35 -31 1 -32
-1 -12 -21 8 -9 15 -11 15 -6 0 5 9 12 20 15 29 8 26 45 -5 57 -34 13 -34 44
0 38 22 -5 24 -3 13 11 -7 9 -12 17 -13 18 0 1 -11 -7 -24 -18z"/>
<path d="M3086 4311 c-4 -5 3 -7 14 -4 29 8 37 -23 13 -50 -38 -41 -37 -47 4
-46 35 1 36 2 9 8 -27 5 -28 7 -12 20 29 24 39 50 25 67 -13 16 -45 19 -53 5z"/>
<path d="M3170 4295 c0 -20 5 -25 25 -25 20 0 25 -5 25 -26 0 -23 -3 -26 -25
-22 -14 3 -25 1 -25 -3 0 -15 47 -10 60 6 16 19 3 55 -21 55 -27 0 -24 28 4
33 16 3 13 5 -10 6 -29 1 -33 -2 -33 -24z"/>
<path d="M3303 4304 c-3 -8 -1 -20 5 -26 8 -8 8 -15 1 -25 -18 -21 -2 -45 28
-41 20 2 29 9 31 26 2 12 -2 22 -9 22 -9 0 -8 4 1 15 7 8 10 22 6 30 -7 20
-55 19 -63 -1z m50 -1 c9 -9 -13 -34 -24 -27 -14 8 -11 34 4 34 8 0 17 -3 20
-7z m3 -54 c9 -15 -11 -33 -30 -26 -9 4 -13 13 -10 22 7 17 30 20 40 4z"/>
<path d="M3401 4306 c-7 -8 -11 -32 -9 -53 3 -33 7 -38 30 -41 22 -3 29 2 33
21 11 44 2 82 -21 85 -11 2 -26 -4 -33 -12z m44 -41 c0 -33 -3 -40 -20 -40
-15 0 -21 8 -23 28 -5 39 5 59 25 55 14 -2 18 -13 18 -43z"/>
<path d="M3491 4306 c-7 -8 -11 -32 -9 -53 3 -33 7 -38 30 -41 22 -3 29 2 33
21 11 44 2 82 -21 85 -11 2 -26 -4 -33 -12z m47 -39 c2 -27 -1 -39 -13 -44
-20 -7 -35 12 -35 48 0 56 43 52 48 -4z"/>
<path d="M3265 4210 c-4 -12 -5 -24 -2 -27 3 -2 8 5 12 17 4 12 5 24 2 27 -3
2 -8 -5 -12 -17z"/>
<path d="M2261 4079 c-28 -23 -22 -45 15 -59 32 -13 26 -35 -9 -35 -31 1 -32
-1 -12 -21 8 -9 15 -11 15 -6 0 5 9 12 20 15 29 8 26 45 -5 57 -30 11 -33 37
-5 42 12 2 17 7 12 15 -5 8 -14 6 -31 -8z"/>
<path d="M3107 4073 l33 -4 -25 -50 c-14 -27 -21 -49 -16 -49 10 0 51 83 51
101 0 5 -17 8 -37 7 -37 -1 -37 -1 -6 -5z"/>
<path d="M3182 4068 c-18 -18 -15 -87 4 -95 30 -11 49 11 49 58 0 36 -3 44
-20 47 -11 1 -26 -3 -33 -10z m43 -43 c0 -33 -3 -40 -20 -40 -15 0 -21 8 -23
28 -5 39 5 59 25 55 14 -2 18 -13 18 -43z"/>
<path d="M3303 4064 c-3 -8 -1 -20 5 -26 8 -8 8 -15 1 -25 -18 -21 -2 -45 28
-41 20 2 29 9 31 26 2 12 -2 22 -9 22 -9 0 -8 4 1 15 7 8 10 22 6 30 -7 20
-55 19 -63 -1z m50 -1 c9 -9 -13 -34 -24 -27 -14 8 -11 34 4 34 8 0 17 -3 20
-7z m3 -54 c9 -15 -11 -33 -30 -26 -9 4 -13 13 -10 22 7 17 30 20 40 4z"/>
<path d="M3401 4066 c-7 -8 -11 -32 -9 -53 3 -33 7 -38 30 -41 22 -3 29 2 33
21 11 44 2 82 -21 85 -11 2 -26 -4 -33 -12z m44 -41 c0 -33 -3 -40 -20 -40
-15 0 -21 8 -23 28 -5 39 5 59 25 55 14 -2 18 -13 18 -43z"/>
<path d="M3491 4066 c-7 -8 -11 -32 -9 -53 3 -33 7 -38 30 -41 22 -3 29 2 33
21 11 44 2 82 -21 85 -11 2 -26 -4 -33 -12z m47 -39 c2 -27 -1 -39 -13 -44
-20 -7 -35 12 -35 48 0 56 43 52 48 -4z"/>
<path d="M3265 3970 c-4 -12 -5 -24 -2 -27 3 -2 8 5 12 17 4 12 5 24 2 27 -3
2 -8 -5 -12 -17z"/>
<path d="M2261 3839 c-28 -23 -22 -45 15 -59 32 -13 26 -35 -9 -35 -31 1 -32
-1 -12 -21 8 -9 15 -11 15 -6 0 5 9 12 20 15 29 8 26 45 -5 57 -34 13 -34 44
0 38 22 -5 24 -3 13 11 -7 9 -12 17 -13 18 0 1 -11 -7 -24 -18z"/>
<path d="M3338 3773 c6 -2 18 -2 25 0 6 3 1 5 -13 5 -14 0 -19 -2 -12 -5z"/>
<path d="M3788 5499 c-26 -15 -24 -75 3 -89 34 -19 64 -9 67 23 3 23 0 27 -22
27 -14 0 -26 -4 -26 -10 0 -5 7 -10 15 -10 8 0 15 -5 15 -11 0 -6 -10 -9 -22
-7 -18 2 -23 10 -23 33 0 27 3 30 33 30 17 0 31 4 29 10 -5 14 -49 17 -69 4z"/>
<path d="M3880 5454 c0 -40 3 -55 13 -51 6 2 12 10 12 17 0 22 23 23 30 1 7
-22 49 -29 60 -11 9 14 52 13 57 -1 2 -7 9 -10 15 -8 15 6 -24 109 -42 109 -7
0 -21 -22 -31 -50 -10 -27 -20 -50 -24 -50 -12 0 -29 39 -20 45 16 10 12 42
-6 49 -9 3 -27 6 -40 6 -23 0 -24 -3 -24 -56z m55 26 c3 -6 -1 -13 -10 -16
-19 -8 -30 0 -20 15 8 14 22 14 30 1z m104 -32 c1 -5 -6 -8 -14 -8 -16 0 -19
9 -8 36 6 16 7 16 14 -2 4 -10 8 -22 8 -26z"/>
<path d="M4090 5455 c0 -65 17 -74 22 -12 l3 42 23 -42 c32 -62 52 -57 52 12
0 30 -4 55 -10 55 -5 0 -10 -19 -10 -42 l-1 -43 -25 43 c-37 60 -54 56 -54
-13z"/>
<path d="M4200 5500 c0 -5 7 -10 15 -10 11 0 15 -12 15 -45 0 -33 4 -45 15
-45 11 0 15 12 15 45 0 33 4 45 15 45 8 0 15 5 15 10 0 6 -20 10 -45 10 -25 0
-45 -4 -45 -10z"/>
<path d="M4340 5454 c0 -40 3 -54 13 -51 6 2 11 11 9 21 -4 23 25 20 33 -4 3
-11 13 -20 22 -20 14 0 14 3 1 23 -11 16 -12 26 -5 39 15 23 -8 48 -44 48 -28
0 -29 -1 -29 -56z m55 26 c3 -6 -1 -13 -10 -16 -19 -8 -30 0 -20 15 8 14 22
14 30 1z"/>
<path d="M4440 5455 l0 -55 35 0 c19 0 35 5 35 10 0 6 -9 10 -20 10 -11 0 -20
7 -20 15 0 8 7 15 15 15 8 0 15 5 15 10 0 6 -7 10 -15 10 -8 0 -15 5 -15 10 0
6 9 10 20 10 11 0 20 5 20 10 0 6 -16 10 -35 10 l-35 0 0 -55z"/>
<path d="M4548 5499 c-21 -12 -24 -69 -6 -87 7 -7 24 -12 38 -12 14 0 31 -5
38 -12 6 -6 15 -9 19 -5 4 4 2 12 -4 18 -6 6 -9 26 -6 45 9 55 -31 81 -79 53z
m57 -20 c4 -5 4 -21 1 -35 -5 -19 -12 -25 -29 -22 -37 5 -36 68 2 68 11 0 23
-5 26 -11z"/>
<path d="M4650 5474 c0 -66 31 -90 81 -64 14 8 19 21 19 55 0 25 -4 45 -10 45
-5 0 -10 -13 -10 -29 0 -42 -10 -61 -31 -61 -16 0 -19 8 -19 45 0 33 -4 45
-15 45 -11 0 -15 -11 -15 -36z"/>
<path d="M4770 5455 l0 -55 35 0 c19 0 35 5 35 10 0 6 -9 10 -20 10 -11 0 -20
7 -20 15 0 8 7 15 15 15 8 0 15 5 15 10 0 6 -7 10 -15 10 -8 0 -15 5 -15 10 0
6 9 10 20 10 11 0 20 5 20 10 0 6 -16 10 -35 10 l-35 0 0 -55z"/>
<path d="M4867 5504 c-16 -16 -6 -45 18 -54 14 -5 25 -15 25 -21 0 -7 -10 -9
-25 -7 -14 3 -25 2 -25 -3 0 -14 21 -21 46 -15 32 8 32 43 -1 58 -33 15 -32
32 0 25 16 -3 24 0 22 7 -4 13 -49 20 -60 10z"/>
<path d="M4940 5500 c0 -5 7 -10 15 -10 11 0 15 -12 15 -45 0 -33 4 -45 15
-45 11 0 15 12 15 45 0 33 4 45 15 45 8 0 15 5 15 10 0 6 -20 10 -45 10 -25 0
-45 -4 -45 -10z"/>
<path d="M4103 5008 c-14 -35 -17 -54 -10 -57 6 -2 13 1 15 8 2 6 14 11 27 11
13 0 25 -5 27 -11 2 -7 9 -10 15 -8 14 5 -25 109 -42 109 -7 0 -21 -24 -32
-52z m46 -10 c1 -5 -6 -8 -14 -8 -16 0 -19 9 -8 36 6 16 7 16 14 -2 4 -10 8
-22 8 -26z"/>
<path d="M4647 5036 c-3 -8 -1 -31 4 -50 7 -26 16 -36 29 -36 11 0 20 5 20 10
0 6 -4 10 -10 10 -14 0 -12 38 2 42 9 3 8 9 -4 21 -20 21 -34 22 -41 3z"/>
<path d="M4200 4989 c0 -44 17 -53 22 -11 2 16 9 27 18 27 9 0 16 -11 18 -27
4 -38 22 -36 22 2 0 20 5 30 15 30 10 0 15 -10 15 -30 0 -16 5 -30 11 -30 6 0
9 16 7 38 l-3 37 -62 1 -63 2 0 -39z"/>
<path d="M4362 5018 c-19 -19 -14 -56 8 -63 35 -11 60 3 60 35 0 37 -42 54
-68 28z m48 -28 c0 -13 -7 -20 -20 -20 -19 0 -27 20 -13 33 13 14 33 6 33 -13z"/>
<path d="M4450 5003 c0 -40 11 -52 48 -51 30 1 32 3 32 40 0 43 -17 52 -22 11
-2 -17 -9 -28 -18 -28 -9 0 -16 11 -18 28 -2 15 -8 27 -13 27 -5 0 -9 -12 -9
-27z"/>
<path d="M4550 4989 c0 -44 17 -53 22 -11 2 16 9 27 18 27 9 0 16 -11 18 -27
5 -43 24 -33 20 10 -3 35 -5 37 -40 39 -38 1 -38 1 -38 -38z"/>
<path d="M3761 4559 c-28 -23 -22 -45 15 -59 32 -13 26 -35 -9 -35 -31 1 -32
-1 -12 -21 8 -9 15 -11 15 -6 0 5 9 12 20 15 29 8 26 45 -5 57 -34 13 -34 44
0 38 22 -5 24 -3 13 11 -7 9 -12 17 -13 18 0 1 -11 -7 -24 -18z"/>
<path d="M4586 4551 c-4 -5 3 -7 14 -4 29 8 37 -23 13 -50 -38 -41 -37 -47 4
-46 31 2 33 3 10 6 l-28 4 26 30 c20 24 23 34 15 50 -11 20 -45 26 -54 10z"/>
<path d="M4693 4553 c-7 -2 -13 -9 -13 -14 0 -6 5 -7 10 -4 6 4 10 -10 10 -34
0 -22 -5 -42 -12 -44 -7 -3 3 -5 22 -5 19 0 29 2 23 5 -8 3 -13 24 -13 54 0
48 -3 52 -27 42z"/>
<path d="M4800 4535 c0 -20 5 -25 25 -25 20 0 25 -5 25 -26 0 -23 -3 -26 -25
-22 -14 3 -25 1 -25 -3 0 -13 44 -11 58 3 20 20 14 47 -13 54 -31 8 -33 31 -2
37 16 3 13 5 -10 6 -29 1 -33 -2 -33 -24z"/>
<path d="M4917 4553 l33 -4 -25 -50 c-14 -27 -22 -49 -17 -49 8 0 52 84 52
100 0 6 -17 9 -37 8 -37 -1 -37 -1 -6 -5z"/>
<path d="M4995 4523 l-25 -38 30 -3 c20 -2 30 -9 31 -20 0 -15 1 -15 7 1 10
23 3 97 -9 97 -4 0 -20 -17 -34 -37z m35 -8 c0 -18 -5 -25 -20 -25 -17 0 -18
3 -8 25 6 14 15 25 20 25 4 0 8 -11 8 -25z"/>
<path d="M4765 4450 c-4 -12 -5 -24 -2 -27 3 -2 8 5 12 17 4 12 5 24 2 27 -3
2 -8 -5 -12 -17z"/>
<path d="M3761 4320 c-28 -24 -22 -46 15 -60 32 -13 26 -35 -9 -35 -31 1 -32
-1 -12 -21 8 -9 15 -11 15 -6 0 5 9 12 20 15 29 8 26 45 -5 57 -36 14 -34 44
2 37 24 -4 25 -4 10 7 -9 7 -14 16 -10 19 14 15 -3 5 -26 -13z"/>
<path d="M4586 4311 c-4 -5 3 -7 14 -4 29 8 37 -23 13 -50 -38 -41 -37 -47 4
-46 35 1 36 2 9 8 -27 6 -28 7 -11 21 24 20 35 52 23 68 -12 14 -44 16 -52 3z"/>
<path d="M4670 4295 c0 -20 5 -25 25 -25 20 0 25 -5 25 -26 0 -23 -3 -26 -25
-22 -14 3 -25 1 -25 -3 0 -15 47 -10 60 6 16 19 6 45 -20 52 -27 7 -25 31 3
36 16 3 13 5 -10 6 -29 1 -33 -2 -33 -24z"/>
<path d="M4803 4304 c-3 -8 -1 -20 5 -26 8 -8 8 -15 1 -25 -18 -21 -2 -45 28
-41 20 2 29 9 31 26 2 12 -2 22 -9 22 -9 0 -8 4 1 15 7 8 10 22 6 30 -7 20
-55 19 -63 -1z m50 -1 c9 -9 -13 -34 -24 -27 -14 8 -11 34 4 34 8 0 17 -3 20
-7z m5 -60 c5 -17 -26 -29 -40 -15 -6 6 -7 15 -3 22 9 14 37 9 43 -7z"/>
<path d="M4902 4308 c-18 -18 -15 -87 4 -95 30 -11 49 11 49 58 0 36 -3 44
-20 47 -11 1 -26 -3 -33 -10z m46 -41 c2 -27 -1 -39 -13 -44 -20 -7 -35 12
-35 48 0 56 43 52 48 -4z"/>
<path d="M4992 4308 c-18 -18 -15 -87 4 -95 30 -11 49 11 49 58 0 36 -3 44
-20 47 -11 1 -26 -3 -33 -10z m43 -43 c0 -33 -3 -40 -20 -40 -15 0 -21 8 -23
28 -5 39 5 59 25 55 14 -2 18 -13 18 -43z"/>
<path d="M4765 4210 c-4 -12 -5 -24 -2 -27 3 -2 8 5 12 17 4 12 5 24 2 27 -3
2 -8 -5 -12 -17z"/>
<path d="M3761 4079 c-28 -23 -22 -45 15 -59 32 -13 26 -35 -9 -35 -31 1 -32
-1 -12 -21 8 -9 15 -11 15 -6 0 5 9 12 20 15 29 8 26 45 -5 57 -34 13 -34 44
0 38 22 -5 24 -3 13 11 -7 9 -12 17 -13 18 0 1 -11 -7 -24 -18z"/>
<path d="M4607 4073 l33 -4 -25 -50 c-14 -27 -22 -49 -17 -49 8 0 52 84 52
100 0 6 -17 9 -37 8 -37 -1 -37 -1 -6 -5z"/>
<path d="M4681 4066 c-7 -8 -11 -32 -9 -53 3 -35 5 -38 33 -38 29 0 30 1 30
50 0 43 -3 50 -21 53 -11 2 -26 -4 -33 -12z m44 -41 c0 -33 -3 -40 -20 -40
-15 0 -21 8 -23 28 -5 39 5 59 25 55 14 -2 18 -13 18 -43z"/>
<path d="M4803 4064 c-3 -8 -1 -20 5 -26 8 -8 8 -15 1 -25 -18 -21 -2 -45 28
-41 20 2 29 9 31 26 2 12 -2 22 -9 22 -9 0 -8 4 1 15 7 8 10 22 6 30 -7 20
-55 19 -63 -1z m50 -1 c9 -9 -13 -34 -24 -27 -14 8 -11 34 4 34 8 0 17 -3 20
-7z m5 -60 c5 -17 -26 -29 -40 -15 -6 6 -7 15 -3 22 9 14 37 9 43 -7z"/>
<path d="M4902 4068 c-15 -15 -16 -84 -1 -93 5 -4 21 -4 35 -1 23 6 25 11 22
54 -2 38 -7 48 -23 50 -11 1 -26 -3 -33 -10z m43 -43 c0 -45 -28 -63 -40 -25
-10 33 3 72 23 68 13 -2 17 -13 17 -43z"/>
<path d="M4992 4068 c-18 -18 -15 -87 4 -95 30 -11 49 11 49 58 0 36 -3 44
-20 47 -11 1 -26 -3 -33 -10z m43 -43 c0 -33 -3 -40 -20 -40 -15 0 -21 8 -23
28 -5 39 5 59 25 55 14 -2 18 -13 18 -43z"/>
<path d="M4765 3970 c-4 -12 -5 -24 -2 -27 3 -2 8 5 12 17 4 12 5 24 2 27 -3
2 -8 -5 -12 -17z"/>
<path d="M3761 3840 c-28 -24 -22 -46 15 -60 32 -13 26 -35 -9 -35 -31 1 -32
-1 -12 -21 8 -9 15 -11 15 -6 0 5 9 12 20 15 29 8 26 45 -5 57 -36 14 -34 44
2 37 24 -4 25 -4 10 7 -9 7 -14 16 -10 19 14 15 -3 5 -26 -13z"/>
<path d="M4838 3773 c6 -2 18 -2 25 0 6 3 1 5 -13 5 -14 0 -19 -2 -12 -5z"/>
<path d="M5350 5456 c0 -43 3 -56 15 -56 8 0 15 9 15 19 0 12 9 21 26 25 20 5
25 12 22 34 -3 23 -8 27 -40 30 l-38 3 0 -55z m60 19 c0 -8 -7 -15 -15 -15 -8
0 -15 7 -15 15 0 8 7 15 15 15 8 0 15 -7 15 -15z"/>
<path d="M5450 5455 c0 -41 4 -55 14 -55 9 0 13 7 11 20 -2 12 2 20 10 20 7 0
17 -9 20 -20 3 -11 13 -20 22 -20 14 0 14 3 -1 24 -10 15 -12 27 -6 31 16 10
12 42 -6 49 -9 3 -27 6 -40 6 -22 0 -24 -3 -24 -55z m55 25 c3 -6 -1 -13 -10
-16 -19 -8 -30 0 -20 15 8 14 22 14 30 1z"/>
<path d="M5550 5455 c0 -42 3 -55 15 -55 12 0 15 13 15 55 0 42 -3 55 -15 55
-12 0 -15 -13 -15 -55z"/>
<path d="M5607 5504 c-16 -16 -6 -45 18 -54 14 -5 25 -15 25 -21 0 -7 -10 -9
-25 -7 -14 3 -25 2 -25 -3 0 -14 21 -21 46 -15 32 8 32 43 -1 58 -33 15 -32
32 0 25 16 -3 24 0 22 7 -4 13 -49 20 -60 10z"/>
<path d="M5690 5455 c0 -30 5 -55 10 -55 6 0 11 8 12 18 0 9 2 22 3 27 2 6 4
15 5 20 1 6 7 -6 14 -25 16 -44 37 -45 50 -2 12 42 26 41 26 -3 0 -19 5 -35
10 -35 6 0 10 25 10 55 0 48 -3 55 -19 55 -13 0 -24 -11 -32 -35 -7 -19 -16
-35 -19 -35 -3 0 -12 16 -19 35 -8 24 -19 35 -32 35 -16 0 -19 -7 -19 -55z"/>
<path d="M5890 5454 c0 -40 3 -54 13 -51 7 2 11 18 10 35 -2 41 11 41 23 0 13
-45 30 -45 51 -1 l17 38 4 -37 c5 -58 22 -45 22 17 0 47 -3 55 -19 55 -12 0
-24 -13 -34 -37 l-15 -38 -18 38 c-11 22 -25 37 -36 37 -15 0 -18 -9 -18 -56z"/>
<path d="M6063 5458 c-14 -35 -17 -54 -10 -57 6 -2 13 1 15 8 2 6 14 11 27 11
13 0 25 -5 27 -11 2 -7 9 -10 15 -8 15 5 -24 109 -41 109 -7 0 -22 -24 -33
-52z m46 -10 c1 -5 -6 -8 -14 -8 -16 0 -19 9 -8 36 6 16 7 16 14 -2 4 -10 8
-22 8 -26z"/>
<path d="M6150 5500 c0 -5 7 -10 15 -10 11 0 15 -12 15 -45 0 -33 4 -45 15
-45 11 0 15 12 15 45 0 33 4 45 15 45 8 0 15 5 15 10 0 6 -20 10 -45 10 -25 0
-45 -4 -45 -10z"/>
<path d="M6266 5495 c-20 -20 -21 -68 -2 -85 17 -14 58 -10 63 6 2 7 -5 10
-21 7 -18 -4 -26 0 -31 17 -8 27 12 53 37 46 12 -3 18 0 15 7 -6 19 -43 20
-61 2z"/>
<path d="M6350 5455 c0 -30 5 -55 10 -55 10 0 14 14 11 38 -1 7 9 12 24 12 20
0 25 -5 25 -25 0 -14 5 -25 10 -25 6 0 10 25 10 55 0 30 -4 55 -10 55 -5 0
-10 -9 -10 -21 0 -15 -5 -20 -22 -17 -15 2 -22 9 -22 21 1 9 -4 17 -12 17 -10
0 -14 -15 -14 -55z"/>
<path d="M5603 5008 c-13 -35 -17 -54 -10 -57 6 -2 13 1 15 8 5 14 52 15 52 1
0 -5 6 -10 14 -10 12 0 11 9 -4 53 -25 70 -42 71 -67 5z m46 -10 c1 -5 -6 -8
-15 -8 -11 0 -14 5 -10 16 3 9 6 21 7 27 0 12 17 -20 18 -35z"/>
<path d="M6147 5036 c-9 -22 12 -86 28 -86 8 0 17 5 20 10 3 6 1 10 -4 10 -15
0 -14 37 1 42 9 3 8 9 -4 21 -20 21 -34 22 -41 3z"/>
<path d="M5700 4989 c0 -44 17 -53 22 -11 2 16 9 27 18 27 9 0 16 -11 18 -27
4 -38 22 -36 22 2 0 20 5 30 15 30 10 0 15 -10 15 -30 0 -16 5 -30 11 -30 6 0
9 16 7 38 l-3 37 -62 1 -63 2 0 -39z"/>
<path d="M5862 5018 c-19 -19 -14 -56 8 -63 35 -11 60 3 60 35 0 37 -42 54
-68 28z m48 -28 c0 -11 -6 -20 -14 -20 -18 0 -29 16 -21 30 11 18 35 11 35
-10z"/>
<path d="M5950 5003 c0 -40 11 -52 48 -51 30 1 32 3 32 40 0 43 -17 52 -22 11
-2 -17 -9 -28 -18 -28 -9 0 -16 11 -18 28 -2 15 -8 27 -13 27 -5 0 -9 -12 -9
-27z"/>
<path d="M6050 4989 c0 -44 17 -53 22 -11 2 16 9 27 18 27 9 0 16 -11 18 -27
5 -43 24 -33 20 10 -3 35 -5 37 -40 39 -38 1 -38 1 -38 -38z"/>
<path d="M5261 4560 c-28 -24 -22 -46 15 -60 32 -13 26 -35 -9 -35 -31 1 -32
-1 -12 -21 8 -9 15 -11 15 -5 0 5 9 13 20 16 28 9 25 43 -5 55 -31 12 -33 40
-2 41 12 0 16 3 9 6 -6 2 -10 9 -6 14 8 13 2 11 -25 -11z"/>
<path d="M6338 4493 c6 -2 18 -2 25 0 6 3 1 5 -13 5 -14 0 -19 -2 -12 -5z"/>
<path d="M5261 4320 c-28 -24 -22 -46 15 -60 32 -13 26 -35 -9 -35 -31 1 -32
-1 -12 -21 8 -9 15 -11 15 -6 0 5 9 12 20 15 29 8 26 45 -5 57 -31 12 -33 40
-2 41 12 0 16 3 9 6 -6 2 -10 9 -6 14 8 13 2 11 -25 -11z"/>
<path d="M6338 4253 c6 -2 18 -2 25 0 6 3 1 5 -13 5 -14 0 -19 -2 -12 -5z"/>
<path d="M5261 4080 c-28 -24 -22 -46 15 -60 32 -13 26 -35 -9 -35 -31 1 -32
-1 -12 -21 8 -9 15 -11 15 -5 0 5 9 13 20 16 28 9 25 43 -5 55 -31 12 -33 40
-2 41 12 0 16 3 9 6 -6 2 -10 9 -6 14 8 13 2 11 -25 -11z"/>
<path d="M6338 4013 c6 -2 18 -2 25 0 6 3 1 5 -13 5 -14 0 -19 -2 -12 -5z"/>
<path d="M5261 3840 c-28 -24 -22 -46 15 -60 32 -13 26 -35 -9 -35 -31 1 -32
-1 -12 -21 8 -9 15 -11 15 -6 0 5 9 12 20 15 29 8 26 45 -5 57 -31 12 -33 40
-2 41 12 0 16 3 9 6 -6 2 -10 9 -6 14 8 13 2 11 -25 -11z"/>
<path d="M6338 3773 c6 -2 18 -2 25 0 6 3 1 5 -13 5 -14 0 -19 -2 -12 -5z"/>
<path d="M6830 5576 c0 -45 3 -56 16 -56 12 0 15 6 10 25 -10 41 6 53 19 14
15 -45 32 -43 55 6 l18 40 1 -42 c1 -64 21 -52 21 12 0 48 -3 55 -19 55 -13 0
-24 -11 -32 -35 -16 -43 -24 -44 -35 -2 -7 22 -17 33 -32 35 -20 3 -22 -1 -22
-52z"/>
<path d="M7003 5578 c-21 -55 -21 -70 -1 -50 15 15 55 16 60 1 2 -7 9 -10 15
-8 15 5 -24 109 -41 109 -7 0 -22 -24 -33 -52z m46 -10 c1 -5 -6 -8 -14 -8
-16 0 -19 9 -8 36 6 16 7 16 14 -2 4 -10 8 -22 8 -26z"/>
<path d="M7090 5620 c0 -5 7 -10 15 -10 11 0 15 -12 15 -45 0 -33 4 -45 15
-45 11 0 15 12 15 45 0 33 4 45 15 45 8 0 15 5 15 10 0 6 -20 10 -45 10 -25 0
-45 -4 -45 -10z"/>
<path d="M7206 5615 c-20 -20 -21 -68 -2 -85 17 -14 58 -10 63 6 2 7 -5 10
-21 7 -18 -4 -26 0 -31 17 -8 27 12 53 37 46 12 -3 18 0 15 7 -6 19 -43 20
-61 2z"/>
<path d="M7290 5575 c0 -39 4 -55 13 -55 8 0 13 10 13 23 -1 16 5 23 22 25 18
3 22 -1 22 -22 0 -14 5 -26 10 -26 6 0 10 25 10 55 0 30 -4 55 -10 55 -5 0
-10 -9 -10 -21 0 -15 -5 -20 -22 -17 -15 2 -22 9 -22 21 1 9 -4 17 -12 17 -10
0 -14 -15 -14 -55z"/>
<path d="M7440 5575 c0 -65 17 -74 22 -12 l3 42 23 -42 c32 -62 52 -57 52 12
0 65 -17 74 -22 13 l-3 -43 -19 43 c-13 27 -26 42 -38 42 -15 0 -18 -9 -18
-55z"/>
<path d="M7576 5617 c-12 -9 -17 -23 -14 -46 4 -43 27 -59 65 -45 51 17 41
104 -11 104 -12 0 -30 -6 -40 -13z m59 -42 c0 -21 -5 -31 -19 -33 -26 -5 -40
12 -32 43 5 20 12 26 29 23 17 -2 22 -10 22 -33z"/>
<path d="M7670 5620 c0 -5 7 -10 15 -10 11 0 15 -12 15 -45 0 -33 4 -45 15
-45 11 0 15 12 15 45 0 33 4 45 15 45 8 0 15 5 15 10 0 6 -20 10 -45 10 -25 0
-45 -4 -45 -10z"/>
<path d="M7810 5575 c0 -42 3 -55 15 -55 12 0 15 13 15 55 0 42 -3 55 -15 55
-12 0 -15 -13 -15 -55z"/>
<path d="M7860 5576 c0 -65 17 -76 22 -13 l3 42 23 -42 c32 -62 52 -57 52 12
0 30 -4 55 -10 55 -5 0 -10 -19 -10 -42 l0 -43 -23 40 c-12 22 -30 41 -40 43
-14 3 -17 -5 -17 -52z"/>
<path d="M7160 5336 c0 -43 3 -56 15 -56 8 0 15 9 15 19 0 12 9 21 26 25 20 5
25 12 22 34 -3 23 -8 27 -40 30 l-38 3 0 -55z m60 19 c0 -8 -7 -15 -15 -15 -8
0 -15 7 -15 15 0 8 7 15 15 15 8 0 15 -7 15 -15z"/>
<path d="M7260 5335 c0 -55 16 -76 27 -35 3 11 9 20 13 20 5 0 12 -9 15 -20 3
-11 13 -20 22 -20 14 0 14 3 -1 24 -10 15 -12 27 -6 31 16 10 12 42 -6 49 -9
3 -27 6 -40 6 -22 0 -24 -3 -24 -55z m53 20 c0 -6 -7 -11 -16 -13 -12 -3 -15
1 -11 13 7 17 25 17 27 0z"/>
<path d="M7360 5335 c0 -42 3 -55 15 -55 12 0 15 13 15 55 0 42 -3 55 -15 55
-12 0 -15 -13 -15 -55z"/>
<path d="M7417 5384 c-16 -16 -6 -45 18 -54 14 -5 25 -15 25 -21 0 -7 -10 -9
-25 -7 -14 3 -25 2 -25 -3 0 -14 21 -21 46 -15 32 8 32 43 -1 58 -33 15 -32
32 0 25 16 -3 24 0 22 7 -4 13 -49 20 -60 10z"/>
<path d="M7500 5335 c0 -30 5 -55 10 -55 6 0 11 5 11 10 1 6 3 19 4 30 4 36 6
36 19 0 17 -46 33 -44 56 5 l18 40 1 -42 c1 -64 21 -52 21 12 0 48 -3 55 -19
55 -13 0 -24 -11 -32 -35 -7 -19 -16 -35 -19 -35 -3 0 -12 16 -19 35 -8 24
-19 35 -32 35 -16 0 -19 -7 -19 -55z"/>
<path d="M7103 5008 c-21 -55 -21 -70 -1 -50 15 15 55 16 60 1 2 -7 9 -10 15
-8 14 5 -25 109 -42 109 -7 0 -21 -24 -32 -52z m46 -10 c1 -5 -6 -8 -14 -8
-16 0 -19 9 -8 36 6 16 7 16 14 -2 4 -10 8 -22 8 -26z"/>
<path d="M7647 5036 c-3 -8 -1 -31 4 -50 7 -26 16 -36 29 -36 11 0 20 5 20 10
0 6 -4 10 -10 10 -14 0 -12 38 2 42 9 3 8 9 -4 21 -20 21 -34 22 -41 3z"/>
<path d="M7200 4989 c0 -44 17 -53 22 -11 2 16 9 27 18 27 9 0 16 -11 18 -27
4 -38 22 -36 22 2 0 20 5 30 15 30 10 0 15 -10 15 -30 0 -16 5 -30 11 -30 6 0
9 16 7 38 l-3 37 -62 1 -63 2 0 -39z"/>
<path d="M7362 5018 c-22 -22 -14 -57 13 -64 31 -8 55 10 55 41 0 33 -44 47
-68 23z m48 -29 c0 -14 -5 -19 -17 -17 -26 5 -29 38 -4 38 15 0 21 -6 21 -21z"/>
<path d="M7450 5003 c0 -40 11 -52 48 -51 30 1 32 3 32 40 0 43 -17 52 -22 11
-2 -17 -9 -28 -18 -28 -9 0 -16 11 -18 28 -2 15 -8 27 -13 27 -5 0 -9 -12 -9
-27z"/>
<path d="M7550 4989 c0 -44 17 -53 22 -11 2 16 9 27 18 27 9 0 16 -11 18 -27
5 -43 24 -33 20 10 -3 35 -5 37 -40 39 -38 1 -38 1 -38 -38z"/>
<path d="M6761 4559 c-28 -23 -22 -45 15 -59 32 -13 26 -35 -9 -35 -31 1 -32
-1 -12 -21 8 -9 15 -11 15 -6 0 5 9 12 20 15 29 8 26 45 -5 57 -34 13 -34 44
0 38 22 -5 24 -3 13 11 -7 9 -12 17 -13 18 0 1 -11 -7 -24 -18z"/>
<path d="M7838 4493 c6 -2 18 -2 25 0 6 3 1 5 -13 5 -14 0 -19 -2 -12 -5z"/>
<path d="M6761 4319 c-28 -23 -22 -45 15 -59 32 -13 26 -35 -9 -35 -31 1 -32
-1 -12 -21 8 -9 15 -11 15 -6 0 5 9 12 20 15 29 8 26 45 -5 57 -34 13 -34 44
0 38 22 -5 24 -3 13 11 -7 9 -12 17 -13 18 0 1 -11 -7 -24 -18z"/>
<path d="M7838 4253 c6 -2 18 -2 25 0 6 3 1 5 -13 5 -14 0 -19 -2 -12 -5z"/>
<path d="M6761 4079 c-28 -23 -22 -45 15 -59 32 -13 26 -35 -9 -35 -31 1 -32
-1 -12 -21 8 -9 15 -11 15 -6 0 5 9 12 20 15 29 8 26 45 -5 57 -34 13 -34 44
0 38 22 -5 24 -3 13 11 -7 9 -12 17 -13 18 0 1 -11 -7 -24 -18z"/>
<path d="M7838 4013 c6 -2 18 -2 25 0 6 3 1 5 -13 5 -14 0 -19 -2 -12 -5z"/>
<path d="M6761 3839 c-28 -23 -22 -45 15 -59 32 -13 26 -35 -9 -35 -31 1 -32
-1 -12 -21 8 -9 15 -11 15 -6 0 5 9 12 20 15 29 8 26 45 -5 57 -34 13 -34 44
0 38 22 -5 24 -3 13 11 -7 9 -12 17 -13 18 0 1 -11 -7 -24 -18z"/>
<path d="M7838 3773 c6 -2 18 -2 25 0 6 3 1 5 -13 5 -14 0 -19 -2 -12 -5z"/>
<path d="M2261 3599 c-28 -23 -22 -45 15 -59 32 -13 26 -35 -9 -35 -31 1 -32
-1 -12 -21 8 -9 15 -11 15 -6 0 5 9 12 20 15 29 8 26 45 -5 57 -30 11 -33 37
-5 42 12 2 17 7 12 15 -5 8 -14 6 -31 -8z"/>
<path d="M3013 3593 c-7 -2 -13 -9 -13 -14 0 -6 5 -7 10 -4 6 4 10 -10 10 -34
0 -22 -5 -42 -12 -44 -7 -3 3 -5 22 -5 19 0 29 2 23 5 -8 3 -13 24 -13 54 0
48 -3 52 -27 42z"/>
<path d="M3103 3593 c-7 -2 -13 -9 -13 -14 0 -6 5 -7 10 -4 6 4 10 -10 10 -34
0 -22 -5 -42 -12 -44 -7 -3 3 -5 22 -5 19 0 29 2 23 5 -8 3 -13 24 -13 54 0
48 -3 52 -27 42z"/>
<path d="M3173 3584 c-3 -8 -1 -20 5 -26 8 -8 8 -15 1 -25 -18 -21 -2 -45 28
-41 20 2 29 9 31 26 2 12 -2 22 -9 22 -9 0 -8 4 1 15 7 8 10 22 6 30 -7 20
-55 19 -63 -1z m50 -1 c9 -9 -13 -34 -24 -27 -14 8 -11 34 4 34 8 0 17 -3 20
-7z m5 -60 c5 -17 -26 -29 -40 -15 -6 6 -7 15 -3 22 9 14 37 9 43 -7z"/>
<path d="M3323 3593 c-7 -2 -13 -9 -13 -14 0 -6 5 -7 10 -4 6 4 10 -10 10 -34
0 -22 -5 -42 -12 -44 -7 -3 3 -5 22 -5 19 0 29 2 23 5 -8 3 -13 24 -13 54 0
48 -3 52 -27 42z"/>
<path d="M3417 3593 l33 -4 -25 -50 c-14 -27 -22 -49 -17 -49 8 0 52 84 52
100 0 6 -17 9 -37 8 -37 -1 -37 -1 -6 -5z"/>
<path d="M3495 3563 l-25 -38 30 -3 c20 -2 30 -9 31 -20 0 -14 2 -14 6 -2 3 8
11 18 17 22 8 5 7 8 -1 8 -8 0 -13 14 -13 35 0 45 -13 44 -45 -2z m32 -30 c-3
-3 -13 -3 -21 -1 -15 3 -15 6 1 28 l18 25 3 -23 c2 -13 1 -26 -1 -29z"/>
<path d="M3265 3490 c-4 -12 -5 -24 -2 -27 3 -2 8 5 12 17 4 12 5 24 2 27 -3
2 -8 -5 -12 -17z"/>
<path d="M2261 2820 c-28 -24 -22 -46 15 -60 32 -13 26 -35 -9 -35 -31 1 -32
-1 -12 -21 8 -9 15 -11 15 -5 0 5 9 13 20 16 28 9 25 43 -5 55 -31 12 -33 40
-2 41 12 0 16 3 9 6 -6 2 -10 9 -6 14 8 13 2 11 -25 -11z"/>
<path d="M3013 2813 c-7 -2 -13 -9 -13 -14 0 -6 5 -7 10 -4 6 4 10 -10 10 -34
0 -22 -5 -42 -12 -44 -7 -3 3 -5 22 -5 19 0 29 2 23 5 -8 3 -13 24 -13 54 0
48 -3 52 -27 42z"/>
<path d="M3091 2806 c-7 -8 -11 -32 -9 -53 3 -35 5 -38 33 -38 29 0 30 1 30
50 0 43 -3 50 -21 53 -11 2 -26 -4 -33 -12z m44 -41 c0 -45 -28 -63 -40 -25
-10 33 3 72 23 68 13 -2 17 -13 17 -43z"/>
<path d="M3173 2804 c-3 -8 -1 -20 5 -26 8 -8 8 -15 1 -25 -18 -21 -2 -45 28
-41 20 2 29 9 31 26 2 12 -2 22 -9 22 -9 0 -8 4 1 15 7 8 10 22 6 30 -7 20
-55 19 -63 -1z m50 -1 c9 -9 -13 -34 -24 -27 -14 8 -11 34 4 34 8 0 17 -3 20
-7z m3 -54 c9 -15 -11 -33 -30 -26 -9 4 -13 13 -10 22 7 17 30 20 40 4z"/>
<path d="M3323 2813 c-7 -2 -13 -9 -13 -14 0 -6 5 -7 10 -4 6 4 10 -10 10 -34
0 -22 -5 -42 -12 -44 -7 -3 3 -5 22 -5 19 0 29 2 23 5 -8 3 -13 24 -13 54 0
48 -3 52 -27 42z"/>
<path d="M3401 2806 c-7 -8 -11 -32 -9 -53 3 -35 5 -38 33 -38 29 0 30 1 30
50 0 43 -3 50 -21 53 -11 2 -26 -4 -33 -12z m44 -41 c0 -45 -28 -63 -40 -25
-10 33 3 72 23 68 13 -2 17 -13 17 -43z"/>
<path d="M3492 2808 c-15 -15 -16 -84 -1 -93 5 -4 21 -4 35 -1 23 6 25 11 22
54 -2 38 -7 48 -23 50 -11 1 -26 -3 -33 -10z m43 -43 c0 -45 -28 -63 -40 -25
-10 33 3 72 23 68 13 -2 17 -13 17 -43z"/>
<path d="M3265 2710 c-4 -12 -5 -24 -2 -27 3 -2 8 5 12 17 4 12 5 24 2 27 -3
2 -8 -5 -12 -17z"/>
<path d="M2261 2580 c-28 -24 -22 -46 15 -60 32 -13 26 -35 -9 -35 -31 1 -32
-1 -12 -21 8 -9 15 -11 15 -5 0 5 9 13 20 16 28 9 25 43 -5 55 -31 12 -33 40
-2 41 12 0 16 3 9 6 -6 2 -10 9 -6 14 8 13 2 11 -25 -11z"/>
<path d="M3338 2513 c6 -2 18 -2 25 0 6 3 1 5 -13 5 -14 0 -19 -2 -12 -5z"/>
<path d="M3761 3599 c-28 -23 -22 -45 15 -59 32 -13 26 -35 -9 -35 -31 1 -32
-1 -12 -21 8 -9 15 -11 15 -6 0 5 9 12 20 15 29 8 26 45 -5 57 -34 13 -34 44
0 38 22 -5 24 -3 13 11 -7 9 -12 17 -13 18 0 1 -11 -7 -24 -18z"/>
<path d="M4513 3593 c-7 -2 -13 -9 -13 -14 0 -6 5 -7 10 -4 6 4 10 -10 10 -34
0 -22 -5 -42 -12 -44 -7 -3 3 -5 22 -5 19 0 29 2 23 5 -8 3 -13 24 -13 54 0
48 -3 52 -27 42z"/>
<path d="M4603 3593 c-7 -2 -13 -9 -13 -14 0 -6 5 -7 10 -4 6 4 10 -10 10 -34
0 -22 -5 -42 -12 -44 -7 -3 3 -5 22 -5 19 0 29 2 23 5 -8 3 -13 24 -13 54 0
48 -3 52 -27 42z"/>
<path d="M4673 3584 c-3 -8 -1 -20 5 -26 8 -8 8 -15 1 -25 -18 -21 -2 -45 28
-41 20 2 29 9 31 26 2 12 -2 22 -9 22 -9 0 -8 4 1 15 7 8 10 22 6 30 -7 20
-55 19 -63 -1z m50 -1 c9 -9 -13 -34 -24 -27 -14 8 -11 34 4 34 8 0 17 -3 20
-7z m5 -60 c5 -17 -26 -29 -40 -15 -6 6 -7 15 -3 22 9 14 37 9 43 -7z"/>
<path d="M4823 3593 c-7 -2 -13 -9 -13 -14 0 -6 5 -7 10 -4 6 4 10 -10 10 -34
0 -22 -5 -42 -12 -44 -7 -3 3 -5 22 -5 19 0 29 2 23 5 -8 3 -13 24 -13 54 0
48 -3 52 -27 42z"/>
<path d="M4917 3593 l33 -4 -25 -50 c-14 -27 -22 -49 -17 -49 8 0 52 84 52
100 0 6 -17 9 -37 8 -37 -1 -37 -1 -6 -5z"/>
<path d="M4995 3563 l-25 -38 30 -3 c20 -2 30 -9 31 -20 0 -15 1 -15 7 1 10
23 3 97 -9 97 -4 0 -20 -17 -34 -37z m35 -8 c0 -18 -5 -25 -20 -25 -17 0 -18
3 -8 25 6 14 15 25 20 25 4 0 8 -11 8 -25z"/>
<path d="M4765 3490 c-4 -12 -5 -24 -2 -27 3 -2 8 5 12 17 4 12 5 24 2 27 -3
2 -8 -5 -12 -17z"/>
<path d="M3761 2820 c-28 -24 -22 -46 15 -60 32 -13 26 -35 -9 -35 -31 1 -32
-1 -12 -21 8 -9 15 -11 15 -6 0 5 9 12 20 15 29 8 26 45 -5 57 -31 12 -33 40
-2 41 12 0 16 3 9 6 -6 2 -10 9 -6 14 8 13 2 11 -25 -11z"/>
<path d="M4513 2813 c-7 -2 -13 -9 -13 -14 0 -6 5 -7 10 -4 6 4 10 -10 10 -34
0 -22 -5 -42 -12 -44 -7 -3 3 -5 22 -5 19 0 29 2 23 5 -8 3 -13 24 -13 54 0
48 -3 52 -27 42z"/>
<path d="M4592 2808 c-15 -15 -16 -84 -1 -93 5 -4 21 -4 35 -1 23 6 25 11 22
54 -2 38 -7 48 -23 50 -11 1 -26 -3 -33 -10z m43 -43 c0 -33 -3 -40 -20 -40
-22 0 -30 24 -21 61 5 17 12 24 24 22 13 -2 17 -13 17 -43z"/>
<path d="M4673 2804 c-3 -8 -1 -20 5 -26 8 -8 8 -15 1 -25 -18 -21 -2 -45 28
-41 20 2 29 9 31 26 2 12 -2 22 -9 22 -9 0 -8 4 1 15 7 8 10 22 6 30 -7 20
-55 19 -63 -1z m50 -1 c9 -9 -13 -34 -24 -27 -14 8 -11 34 4 34 8 0 17 -3 20
-7z m5 -60 c5 -17 -26 -29 -40 -15 -6 6 -7 15 -3 22 9 14 37 9 43 -7z"/>
<path d="M4823 2813 c-7 -2 -13 -9 -13 -14 0 -6 5 -7 10 -4 6 4 10 -10 10 -34
0 -22 -5 -42 -12 -44 -7 -3 3 -5 22 -5 19 0 29 2 23 5 -8 3 -13 24 -13 54 0
48 -3 52 -27 42z"/>
<path d="M4901 2806 c-7 -8 -11 -32 -9 -53 3 -33 7 -38 30 -41 22 -3 29 2 33
21 11 44 2 82 -21 85 -11 2 -26 -4 -33 -12z m44 -41 c0 -33 -3 -40 -20 -40
-22 0 -30 24 -21 61 5 17 12 24 24 22 13 -2 17 -13 17 -43z"/>
<path d="M4992 2808 c-18 -18 -15 -87 4 -95 30 -11 49 11 49 58 0 36 -3 44
-20 47 -11 1 -26 -3 -33 -10z m43 -43 c0 -45 -28 -63 -40 -25 -10 33 3 72 23
68 13 -2 17 -13 17 -43z"/>
<path d="M4765 2710 c-4 -12 -5 -24 -2 -27 3 -2 8 5 12 17 4 12 5 24 2 27 -3
2 -8 -5 -12 -17z"/>
<path d="M3761 2580 c-28 -24 -22 -46 15 -60 32 -13 26 -35 -9 -35 -31 1 -32
-1 -12 -21 8 -9 15 -11 15 -6 0 5 9 12 20 15 29 8 26 45 -5 57 -31 12 -33 40
-2 41 12 0 16 3 9 6 -6 2 -10 9 -6 14 8 13 2 11 -25 -11z"/>
<path d="M4838 2513 c6 -2 18 -2 25 0 6 3 1 5 -13 5 -14 0 -19 -2 -12 -5z"/>
<path d="M5261 3600 c-28 -24 -22 -46 15 -60 32 -13 26 -35 -9 -35 -31 1 -32
-1 -12 -21 8 -9 15 -11 15 -5 0 5 9 13 20 16 28 9 25 43 -5 55 -31 12 -33 40
-2 41 12 0 16 3 9 6 -6 2 -10 9 -6 14 8 13 2 11 -25 -11z"/>
<path d="M6338 3533 c6 -2 18 -2 25 0 6 3 1 5 -13 5 -14 0 -19 -2 -12 -5z"/>
<path d="M5261 2819 c-28 -23 -22 -45 15 -59 32 -13 26 -35 -9 -35 -31 1 -32
-1 -12 -21 8 -9 15 -11 15 -6 0 5 9 12 20 15 29 8 26 45 -5 57 -30 11 -33 37
-5 42 12 2 17 7 12 15 -5 8 -14 6 -31 -8z"/>
<path d="M6338 2753 c6 -2 18 -2 25 0 6 3 1 5 -13 5 -14 0 -19 -2 -12 -5z"/>
<path d="M5261 2580 c-28 -24 -22 -46 15 -60 32 -13 26 -35 -9 -35 -31 1 -32
-1 -12 -21 8 -9 15 -11 15 -6 0 5 9 12 20 15 29 8 26 45 -5 57 -31 12 -33 40
-2 41 12 0 16 3 9 6 -6 2 -10 9 -6 14 8 13 2 11 -25 -11z"/>
<path d="M6338 2513 c6 -2 18 -2 25 0 6 3 1 5 -13 5 -14 0 -19 -2 -12 -5z"/>
<path d="M6761 3599 c-28 -23 -22 -45 15 -59 32 -13 26 -35 -9 -35 -31 1 -32
-1 -12 -21 8 -9 15 -11 15 -6 0 5 9 12 20 15 29 8 26 45 -5 57 -34 13 -34 44
0 38 22 -5 24 -3 13 11 -7 9 -12 17 -13 18 0 1 -11 -7 -24 -18z"/>
<path d="M7838 3533 c6 -2 18 -2 25 0 6 3 1 5 -13 5 -14 0 -19 -2 -12 -5z"/>
<path d="M6761 2819 c-28 -23 -22 -45 15 -59 32 -13 26 -35 -9 -35 -31 1 -32
-1 -12 -21 8 -9 15 -11 15 -6 0 5 9 12 20 15 29 8 26 45 -5 57 -30 11 -33 37
-5 42 12 2 17 7 12 15 -5 8 -14 6 -31 -8z"/>
<path d="M7838 2753 c6 -2 18 -2 25 0 6 3 1 5 -13 5 -14 0 -19 -2 -12 -5z"/>
<path d="M6761 2579 c-28 -23 -22 -45 15 -59 32 -13 26 -35 -9 -35 -31 1 -32
-1 -12 -21 8 -9 15 -11 15 -6 0 5 9 12 20 15 29 8 26 45 -5 57 -30 11 -33 37
-5 42 12 2 17 7 12 15 -5 8 -14 6 -31 -8z"/>
<path d="M7838 2513 c6 -2 18 -2 25 0 6 3 1 5 -13 5 -14 0 -19 -2 -12 -5z"/>
<path d="M2261 2319 c-28 -23 -22 -45 15 -59 32 -13 26 -35 -9 -35 -31 1 -32
-1 -12 -21 8 -9 15 -11 15 -6 0 5 9 12 20 15 29 8 26 45 -5 57 -30 11 -33 37
-5 42 12 2 17 7 12 15 -5 8 -14 6 -31 -8z"/>
<path d="M3013 2313 c-7 -2 -13 -9 -13 -14 0 -6 5 -7 10 -4 6 4 10 -10 10 -34
0 -22 -5 -42 -12 -44 -7 -3 3 -5 22 -5 19 0 29 2 23 5 -8 3 -13 24 -13 54 0
48 -3 52 -27 42z"/>
<path d="M3091 2306 c-7 -8 -11 -32 -9 -53 3 -35 5 -38 33 -38 29 0 30 1 30
50 0 43 -3 50 -21 53 -11 2 -26 -4 -33 -12z m44 -41 c0 -33 -3 -40 -20 -40
-15 0 -21 8 -23 28 -5 39 5 59 25 55 14 -2 18 -13 18 -43z"/>
<path d="M3173 2304 c-3 -8 -1 -20 5 -26 8 -8 8 -15 1 -25 -18 -21 -2 -45 28
-41 20 2 29 9 31 26 2 12 -2 22 -9 22 -9 0 -8 4 1 15 7 8 10 22 6 30 -7 20
-55 19 -63 -1z m50 -1 c9 -9 -13 -34 -24 -27 -14 8 -11 34 4 34 8 0 17 -3 20
-7z m5 -60 c5 -17 -26 -29 -40 -15 -6 6 -7 15 -3 22 9 14 37 9 43 -7z"/>
<path d="M3323 2313 c-7 -2 -13 -9 -13 -14 0 -6 5 -7 10 -4 6 4 10 -10 10 -34
0 -22 -5 -42 -12 -44 -7 -3 3 -5 22 -5 19 0 29 2 23 5 -8 3 -13 24 -13 54 0
48 -3 52 -27 42z"/>
<path d="M3401 2306 c-7 -8 -11 -32 -9 -53 3 -33 7 -38 30 -41 22 -3 29 2 33
21 11 44 2 82 -21 85 -11 2 -26 -4 -33 -12z m47 -39 c2 -27 -1 -39 -13 -44
-20 -7 -35 12 -35 48 0 56 43 52 48 -4z"/>
<path d="M3491 2306 c-7 -8 -11 -32 -9 -53 3 -33 7 -38 30 -41 22 -3 29 2 33
21 11 44 2 82 -21 85 -11 2 -26 -4 -33 -12z m47 -39 c2 -27 -1 -39 -13 -44
-20 -7 -35 12 -35 48 0 56 43 52 48 -4z"/>
<path d="M3265 2210 c-4 -12 -5 -24 -2 -27 3 -2 8 5 12 17 4 12 5 24 2 27 -3
2 -8 -5 -12 -17z"/>
<path d="M2261 1560 c-28 -24 -22 -46 15 -60 32 -13 26 -35 -9 -35 -31 1 -32
-1 -12 -21 8 -9 15 -11 15 -5 0 5 9 13 20 16 28 9 25 43 -5 55 -36 14 -34 44
2 37 24 -4 25 -4 10 7 -9 7 -14 16 -10 19 14 15 -3 5 -26 -13z"/>
<path d="M3013 1553 c-7 -2 -13 -9 -13 -14 0 -6 5 -7 10 -4 6 4 10 -10 10 -34
0 -22 -5 -42 -12 -44 -7 -3 3 -5 22 -5 19 0 29 2 23 5 -8 3 -13 24 -13 54 0
48 -3 52 -27 42z"/>
<path d="M3086 1552 c-3 -6 2 -8 14 -5 29 8 37 -23 13 -50 -38 -41 -37 -47 4
-46 32 2 33 3 9 6 l-28 5 22 23 c27 29 24 69 -7 73 -11 2 -24 -1 -27 -6z"/>
<path d="M3197 1553 l33 -4 -25 -50 c-14 -27 -21 -49 -16 -49 10 0 51 83 51
101 0 5 -17 8 -37 7 -37 -1 -37 -1 -6 -5z"/>
<path d="M3306 1552 c-3 -6 2 -8 14 -5 29 8 37 -23 13 -50 -38 -41 -37 -47 4
-46 32 2 33 3 9 6 l-28 5 22 23 c27 29 24 69 -7 73 -11 2 -24 -1 -27 -6z"/>
<path d="M3401 1546 c-7 -8 -11 -32 -9 -53 3 -33 7 -38 30 -41 22 -3 29 2 33
21 11 44 2 82 -21 85 -11 2 -26 -4 -33 -12z m44 -41 c0 -33 -3 -40 -20 -40
-15 0 -21 8 -23 28 -5 39 5 59 25 55 14 -2 18 -13 18 -43z"/>
<path d="M3492 1548 c-18 -18 -15 -87 4 -95 30 -11 49 11 49 58 0 36 -3 44
-20 47 -11 1 -26 -3 -33 -10z m43 -43 c0 -33 -3 -40 -20 -40 -22 0 -30 24 -21
61 5 17 12 24 24 22 13 -2 17 -13 17 -43z"/>
<path d="M3265 1450 c-4 -12 -5 -24 -2 -27 3 -2 8 5 12 17 4 12 5 24 2 27 -3
2 -8 -5 -12 -17z"/>
<path d="M2261 1320 c-28 -24 -22 -46 15 -60 32 -13 26 -35 -9 -35 -31 1 -32
-1 -12 -21 8 -9 15 -11 15 -6 0 5 9 12 20 15 29 8 26 45 -5 57 -36 14 -34 44
2 37 24 -4 25 -4 10 7 -9 7 -14 16 -10 19 14 15 -3 5 -26 -13z"/>
<path d="M3338 1253 c6 -2 18 -2 25 0 6 3 1 5 -13 5 -14 0 -19 -2 -12 -5z"/>
<path d="M2261 1080 c-28 -24 -22 -46 15 -60 32 -13 26 -35 -9 -35 -31 1 -32
-1 -12 -21 8 -9 15 -11 15 -5 0 5 9 13 20 16 28 9 25 43 -5 55 -36 14 -34 44
2 37 24 -4 25 -4 10 7 -9 7 -14 16 -10 19 14 15 -3 5 -26 -13z"/>
<path d="M3338 1013 c6 -2 18 -2 25 0 6 3 1 5 -13 5 -14 0 -19 -2 -12 -5z"/>
<path d="M3761 2319 c-28 -23 -22 -45 15 -59 32 -13 26 -35 -9 -35 -31 1 -32
-1 -12 -21 8 -9 15 -11 15 -6 0 5 9 12 20 15 29 8 26 45 -5 57 -34 13 -34 44
0 38 22 -5 24 -3 13 11 -7 9 -12 17 -13 18 0 1 -11 -7 -24 -18z"/>
<path d="M4513 2313 c-7 -2 -13 -9 -13 -14 0 -6 5 -7 10 -4 6 4 10 -10 10 -34
0 -22 -5 -42 -12 -44 -7 -3 3 -5 22 -5 19 0 29 2 23 5 -8 3 -13 24 -13 54 0
48 -3 52 -27 42z"/>
<path d="M4591 2306 c-7 -8 -11 -32 -9 -53 3 -35 5 -38 33 -38 29 0 30 1 30
50 0 43 -3 50 -21 53 -11 2 -26 -4 -33 -12z m44 -41 c0 -45 -28 -63 -40 -25
-10 33 3 72 23 68 13 -2 17 -13 17 -43z"/>
<path d="M4673 2304 c-3 -8 -1 -20 5 -26 8 -8 8 -15 1 -25 -18 -21 -2 -45 28
-41 20 2 29 9 31 26 2 12 -2 22 -9 22 -9 0 -8 4 1 15 7 8 10 22 6 30 -7 20
-55 19 -63 -1z m50 -1 c9 -9 -13 -34 -24 -27 -14 8 -11 34 4 34 8 0 17 -3 20
-7z m3 -54 c9 -15 -11 -33 -30 -26 -9 4 -13 13 -10 22 7 17 30 20 40 4z"/>
<path d="M4823 2313 c-7 -2 -13 -9 -13 -14 0 -6 5 -7 10 -4 6 4 10 -10 10 -34
0 -22 -5 -42 -12 -44 -7 -3 3 -5 22 -5 19 0 29 2 23 5 -8 3 -13 24 -13 54 0
48 -3 52 -27 42z"/>
<path d="M4901 2306 c-7 -8 -11 -32 -9 -53 3 -35 5 -38 33 -38 29 0 30 1 30
50 0 43 -3 50 -21 53 -11 2 -26 -4 -33 -12z m44 -41 c0 -45 -28 -63 -40 -25
-10 33 3 72 23 68 13 -2 17 -13 17 -43z"/>
<path d="M4992 2308 c-18 -18 -15 -87 4 -95 30 -11 49 11 49 58 0 36 -3 44
-20 47 -11 1 -26 -3 -33 -10z m43 -43 c0 -33 -3 -40 -20 -40 -15 0 -21 8 -23
28 -5 39 5 59 25 55 14 -2 18 -13 18 -43z"/>
<path d="M4765 2210 c-4 -12 -5 -24 -2 -27 3 -2 8 5 12 17 4 12 5 24 2 27 -3
2 -8 -5 -12 -17z"/>
<path d="M3761 1560 c-28 -24 -22 -46 15 -60 32 -13 26 -35 -9 -35 -31 1 -32
-1 -12 -21 8 -9 15 -11 15 -6 0 5 9 12 20 15 29 8 26 45 -5 57 -31 12 -33 40
-2 41 12 0 16 3 9 6 -6 2 -10 9 -6 14 8 13 2 11 -25 -11z"/>
<path d="M4513 1553 c-7 -2 -13 -9 -13 -14 0 -6 5 -7 10 -4 6 4 10 -10 10 -34
0 -22 -5 -42 -12 -44 -7 -3 3 -5 22 -5 19 0 29 2 23 5 -8 3 -13 24 -13 54 0
48 -3 52 -27 42z"/>
<path d="M4586 1551 c-4 -5 3 -7 14 -4 29 8 37 -23 13 -50 -38 -41 -37 -47 4
-46 31 2 33 3 10 6 l-28 4 26 30 c20 24 23 34 15 50 -11 20 -45 26 -54 10z"/>
<path d="M4697 1553 l33 -4 -25 -50 c-14 -27 -21 -49 -16 -49 10 0 51 83 51
101 0 5 -17 8 -37 7 -37 -1 -37 -1 -6 -5z"/>
<path d="M4806 1551 c-4 -5 3 -7 14 -4 29 8 37 -23 13 -50 -38 -41 -37 -47 4
-46 31 2 33 3 10 6 l-28 4 26 30 c20 24 23 34 15 50 -11 20 -45 26 -54 10z"/>
<path d="M4901 1546 c-7 -8 -11 -32 -9 -53 3 -33 7 -38 30 -41 22 -3 29 2 33
21 11 44 2 82 -21 85 -11 2 -26 -4 -33 -12z m44 -41 c0 -33 -3 -40 -20 -40
-22 0 -30 24 -21 61 5 17 12 24 24 22 13 -2 17 -13 17 -43z"/>
<path d="M4991 1546 c-7 -8 -11 -32 -9 -53 3 -35 5 -38 33 -38 29 0 30 1 30
50 0 43 -3 50 -21 53 -11 2 -26 -4 -33 -12z m44 -41 c0 -33 -3 -40 -20 -40
-22 0 -30 24 -21 61 5 17 12 24 24 22 13 -2 17 -13 17 -43z"/>
<path d="M4765 1450 c-4 -12 -5 -24 -2 -27 3 -2 8 5 12 17 4 12 5 24 2 27 -3
2 -8 -5 -12 -17z"/>
<path d="M3761 1320 c-28 -24 -22 -46 15 -60 32 -13 26 -35 -9 -35 -31 1 -32
-1 -12 -21 8 -9 15 -11 15 -6 0 5 9 12 20 15 29 8 26 45 -5 57 -31 12 -33 40
-2 41 12 0 16 3 9 6 -6 2 -10 9 -6 14 8 13 2 11 -25 -11z"/>
<path d="M4838 1253 c6 -2 18 -2 25 0 6 3 1 5 -13 5 -14 0 -19 -2 -12 -5z"/>
<path d="M3761 1080 c-28 -24 -22 -46 15 -60 32 -13 26 -35 -9 -35 -31 1 -32
-1 -12 -21 8 -9 15 -11 15 -6 0 5 9 12 20 15 29 8 26 45 -5 57 -31 12 -33 40
-2 41 12 0 16 3 9 6 -6 2 -10 9 -6 14 8 13 2 11 -25 -11z"/>
<path d="M4838 1013 c6 -2 18 -2 25 0 6 3 1 5 -13 5 -14 0 -19 -2 -12 -5z"/>
<path d="M5261 2320 c-28 -24 -22 -46 15 -60 32 -13 26 -35 -9 -35 -31 1 -32
-1 -12 -21 8 -9 15 -11 15 -5 0 5 9 13 20 16 28 9 25 43 -5 55 -31 12 -33 40
-2 41 12 0 16 3 9 6 -6 2 -10 9 -6 14 8 13 2 11 -25 -11z"/>
<path d="M6338 2253 c6 -2 18 -2 25 0 6 3 1 5 -13 5 -14 0 -19 -2 -12 -5z"/>
<path d="M5261 1560 c-28 -24 -22 -46 15 -60 32 -13 26 -35 -9 -35 -31 1 -32
-1 -12 -21 8 -9 15 -11 15 -5 0 5 9 13 20 16 28 9 25 43 -5 55 -31 12 -33 40
-2 41 12 0 16 3 9 6 -6 2 -10 9 -6 14 8 13 2 11 -25 -11z"/>
<path d="M6338 1493 c6 -2 18 -2 25 0 6 3 1 5 -13 5 -14 0 -19 -2 -12 -5z"/>
<path d="M5261 1320 c-28 -24 -22 -46 15 -60 32 -13 26 -35 -9 -35 -31 1 -32
-1 -12 -21 8 -9 15 -11 15 -5 0 5 9 13 20 16 28 9 25 43 -5 55 -31 12 -33 40
-2 41 12 0 16 3 9 6 -6 2 -10 9 -6 14 8 13 2 11 -25 -11z"/>
<path d="M6338 1253 c6 -2 18 -2 25 0 6 3 1 5 -13 5 -14 0 -19 -2 -12 -5z"/>
<path d="M5261 1080 c-28 -24 -22 -46 15 -60 32 -13 26 -35 -9 -35 -31 1 -32
-1 -12 -21 8 -9 15 -11 15 -5 0 5 9 13 20 16 28 9 25 43 -5 55 -31 12 -33 40
-2 41 12 0 16 3 9 6 -6 2 -10 9 -6 14 8 13 2 11 -25 -11z"/>
<path d="M6338 1013 c6 -2 18 -2 25 0 6 3 1 5 -13 5 -14 0 -19 -2 -12 -5z"/>
<path d="M6761 2319 c-28 -23 -22 -45 15 -59 32 -13 26 -35 -9 -35 -31 1 -32
-1 -12 -21 8 -9 15 -11 15 -6 0 5 9 12 20 15 29 8 26 45 -5 57 -34 13 -34 44
0 38 22 -5 24 -3 13 11 -7 9 -12 17 -13 18 0 1 -11 -7 -24 -18z"/>
<path d="M7838 2253 c6 -2 18 -2 25 0 6 3 1 5 -13 5 -14 0 -19 -2 -12 -5z"/>
<path d="M6761 1559 c-28 -23 -22 -45 15 -59 32 -13 26 -35 -9 -35 -31 1 -32
-1 -12 -21 8 -9 15 -11 15 -5 0 5 9 13 20 16 28 9 25 43 -5 55 -34 13 -34 44
0 38 22 -5 24 -3 13 11 -7 9 -12 17 -13 18 0 1 -11 -7 -24 -18z"/>
<path d="M7838 1493 c6 -2 18 -2 25 0 6 3 1 5 -13 5 -14 0 -19 -2 -12 -5z"/>
<path d="M2261 840 c-28 -24 -22 -46 15 -60 32 -13 26 -35 -9 -35 -31 1 -32
-1 -12 -21 8 -9 15 -11 15 -6 0 5 9 12 20 15 29 8 26 45 -5 57 -36 14 -34 44
2 37 24 -4 25 -4 10 7 -9 7 -14 16 -10 19 14 15 -3 5 -26 -13z"/>
<path d="M3013 833 c-7 -2 -13 -9 -13 -14 0 -6 5 -7 10 -4 6 4 10 -10 10 -34
0 -22 -5 -42 -12 -44 -7 -3 3 -5 22 -5 19 0 29 2 23 5 -8 3 -13 24 -13 54 0
48 -3 52 -27 42z"/>
<path d="M3086 832 c-3 -6 2 -8 14 -5 29 8 37 -23 13 -50 -38 -41 -37 -47 4
-46 32 2 33 3 9 6 l-28 5 22 23 c27 29 24 69 -7 73 -11 2 -24 -1 -27 -6z"/>
<path d="M3197 833 l33 -4 -25 -50 c-14 -27 -21 -49 -16 -49 10 0 51 83 51
101 0 5 -17 8 -37 7 -37 -1 -37 -1 -6 -5z"/>
<path d="M3306 831 c-4 -5 3 -7 14 -4 29 8 37 -23 13 -50 -38 -41 -37 -47 4
-46 35 1 36 2 9 8 -27 6 -28 7 -11 21 24 20 35 52 23 68 -12 14 -44 16 -52 3z"/>
<path d="M3401 826 c-7 -8 -11 -32 -9 -53 3 -33 7 -38 30 -41 22 -3 29 2 33
21 11 44 2 82 -21 85 -11 2 -26 -4 -33 -12z m44 -41 c0 -33 -3 -40 -20 -40
-15 0 -21 8 -23 28 -5 39 5 59 25 55 14 -2 18 -13 18 -43z"/>
<path d="M3492 828 c-18 -18 -15 -87 4 -95 30 -11 49 11 49 58 0 36 -3 44 -20
47 -11 1 -26 -3 -33 -10z m43 -43 c0 -45 -28 -63 -40 -25 -10 33 3 72 23 68
13 -2 17 -13 17 -43z"/>
<path d="M3265 730 c-4 -12 -5 -24 -2 -27 3 -2 8 5 12 17 4 12 5 24 2 27 -3 2
-8 -5 -12 -17z"/>
<path d="M3761 840 c-28 -24 -22 -46 15 -60 32 -13 26 -35 -9 -35 -31 1 -32
-1 -12 -21 8 -9 15 -11 15 -6 0 5 9 12 20 15 29 8 26 45 -5 57 -31 12 -33 40
-2 41 12 0 16 3 9 6 -6 2 -10 9 -6 14 8 13 2 11 -25 -11z"/>
<path d="M4513 833 c-7 -2 -13 -9 -13 -14 0 -6 5 -7 10 -4 6 4 10 -10 10 -34
0 -22 -5 -42 -12 -44 -7 -3 3 -5 22 -5 19 0 29 2 23 5 -8 3 -13 24 -13 54 0
48 -3 52 -27 42z"/>
<path d="M4586 831 c-4 -5 3 -7 14 -4 29 8 37 -23 13 -50 -38 -41 -37 -47 4
-46 31 2 33 3 10 6 l-28 4 26 30 c20 24 23 34 15 50 -11 20 -45 26 -54 10z"/>
<path d="M4697 833 l33 -4 -25 -50 c-14 -27 -21 -49 -16 -49 10 0 51 83 51
101 0 5 -17 8 -37 7 -37 -1 -37 -1 -6 -5z"/>
<path d="M4806 831 c-4 -5 3 -7 14 -4 29 8 37 -23 13 -50 -38 -41 -37 -47 4
-46 31 2 33 3 10 6 l-28 4 26 30 c20 24 23 34 15 50 -11 20 -45 26 -54 10z"/>
<path d="M4901 826 c-7 -8 -11 -32 -9 -53 3 -35 5 -38 33 -38 29 0 30 1 30 50
0 43 -3 50 -21 53 -11 2 -26 -4 -33 -12z m44 -41 c0 -33 -3 -40 -20 -40 -22 0
-30 24 -21 61 5 17 12 24 24 22 13 -2 17 -13 17 -43z"/>
<path d="M4991 826 c-7 -8 -11 -32 -9 -53 3 -35 5 -38 33 -38 29 0 30 1 30 50
0 43 -3 50 -21 53 -11 2 -26 -4 -33 -12z m44 -41 c0 -33 -3 -40 -20 -40 -22 0
-30 24 -21 61 5 17 12 24 24 22 13 -2 17 -13 17 -43z"/>
<path d="M4765 730 c-4 -12 -5 -24 -2 -27 3 -2 8 5 12 17 4 12 5 24 2 27 -3 2
-8 -5 -12 -17z"/>
<path d="M5261 840 c-28 -24 -22 -46 15 -60 32 -13 26 -35 -9 -35 -31 1 -32
-1 -12 -21 8 -9 15 -11 15 -5 0 5 9 13 20 16 28 9 25 43 -5 55 -31 12 -33 40
-2 41 12 0 16 3 9 6 -6 2 -10 9 -6 14 8 13 2 11 -25 -11z"/>
<path d="M6338 773 c6 -2 18 -2 25 0 6 3 1 5 -13 5 -14 0 -19 -2 -12 -5z"/>
<path d="M6761 839 c-28 -23 -22 -45 15 -59 32 -13 26 -35 -9 -35 -31 1 -32
-1 -12 -21 8 -9 15 -11 15 -5 0 5 9 13 20 16 28 9 25 43 -5 55 -34 13 -34 44
0 38 22 -5 24 -3 13 11 -7 9 -12 17 -13 18 0 1 -11 -7 -24 -18z"/>
<path d="M7838 773 c6 -2 18 -2 25 0 6 3 1 5 -13 5 -14 0 -19 -2 -12 -5z"/>
<path d="M2268 331 c-25 -25 -22 -50 7 -61 14 -5 25 -15 25 -21 0 -7 -10 -9
-25 -7 -28 6 -30 1 -12 -23 12 -15 14 -15 35 1 29 24 28 48 -3 62 -14 6 -25
16 -25 21 0 5 11 7 25 5 28 -6 30 -1 11 25 -16 21 -16 20 -38 -2z"/>
<path d="M2977 324 c-13 -14 -7 -22 13 -17 11 3 20 0 20 -6 0 -6 -7 -11 -15
-11 -22 0 -18 -17 6 -23 13 -3 18 -10 14 -17 -4 -7 -16 -10 -26 -7 -11 3 -19
1 -19 -3 0 -15 20 -22 45 -16 22 6 24 11 22 54 -2 42 -5 47 -27 50 -14 2 -29
0 -33 -4z"/>
<path d="M3060 301 c0 -22 5 -30 20 -33 25 -4 22 -23 -3 -22 -10 0 -16 -4 -14
-10 6 -17 49 -13 60 5 14 22 2 49 -23 49 -11 0 -20 5 -20 10 0 6 9 10 19 10
11 0 23 5 26 10 4 6 -8 10 -29 10 -33 0 -36 -2 -36 -29z"/>
<path d="M3157 324 c-13 -14 -7 -22 13 -17 11 3 20 0 20 -6 0 -6 -7 -11 -15
-11 -22 0 -18 -17 6 -23 13 -3 18 -10 14 -17 -4 -7 -16 -10 -26 -7 -11 3 -19
1 -19 -3 0 -15 20 -22 45 -16 22 6 24 11 22 54 -2 42 -5 47 -27 50 -14 2 -29
0 -33 -4z"/>
<path d="M3302 291 c-28 -49 -27 -51 2 -51 13 0 26 -6 28 -12 3 -9 10 -7 24 6
13 14 15 21 6 24 -6 2 -12 19 -12 38 0 46 -21 44 -48 -5z m24 -28 c-11 -11
-17 4 -9 23 7 18 8 18 11 1 2 -10 1 -21 -2 -24z"/>
<path d="M3380 320 c0 -5 11 -10 25 -10 l25 0 -20 -40 c-23 -46 -24 -50 -7
-50 12 0 47 73 47 98 0 7 -14 12 -35 12 -19 0 -35 -4 -35 -10z"/>
<path d="M3482 291 c-28 -49 -27 -51 2 -51 13 0 26 -6 28 -12 3 -9 10 -7 24 6
13 14 15 21 6 24 -6 2 -12 19 -12 38 0 46 -21 44 -48 -5z m28 -11 c0 -11 -7
-20 -15 -20 -13 0 -13 3 -3 20 7 11 14 20 15 20 2 0 3 -9 3 -20z"/>
<path d="M3246 234 c-11 -28 -6 -39 9 -20 8 11 15 23 15 28 0 14 -18 9 -24 -8z"/>
<path d="M3768 331 c-25 -25 -22 -50 7 -61 14 -5 25 -15 25 -21 0 -7 -10 -9
-25 -7 -28 6 -30 1 -10 -25 13 -18 14 -18 34 2 28 28 26 41 -6 69 l-28 23 28
-4 c30 -5 33 0 13 26 -16 21 -16 20 -38 -2z"/>
<path d="M4477 323 c-13 -13 -7 -21 13 -16 11 3 20 0 20 -6 0 -6 -7 -11 -15
-11 -22 0 -18 -17 6 -23 13 -3 18 -10 14 -17 -4 -7 -16 -10 -26 -7 -11 3 -19
1 -19 -3 0 -15 20 -22 46 -16 25 7 34 39 13 52 -8 5 -7 9 1 14 20 12 3 40 -23
40 -13 0 -27 -3 -30 -7z"/>
<path d="M4560 301 c0 -22 5 -30 20 -33 25 -4 22 -23 -2 -22 -10 0 -18 -3 -18
-7 0 -14 21 -21 46 -15 20 5 25 12 22 34 -2 19 -9 28 -25 30 -28 4 -30 22 -3
22 11 0 20 5 20 10 0 6 -13 10 -30 10 -27 0 -30 -3 -30 -29z"/>
<path d="M4657 324 c-13 -14 -7 -22 13 -17 11 3 20 0 20 -6 0 -6 -7 -11 -15
-11 -22 0 -18 -17 6 -23 13 -3 18 -10 14 -17 -4 -7 -16 -10 -26 -7 -11 3 -19
1 -19 -3 0 -15 20 -22 45 -16 22 6 24 11 22 54 -2 42 -5 47 -27 50 -14 2 -29
0 -33 -4z"/>
<path d="M4802 291 c-28 -49 -27 -51 2 -51 13 0 26 -6 28 -12 3 -9 10 -7 24 6
13 14 15 21 6 24 -6 2 -12 19 -12 38 0 46 -21 44 -48 -5z m28 -11 c0 -11 -7
-20 -15 -20 -13 0 -13 3 -3 20 7 11 14 20 15 20 2 0 3 -9 3 -20z"/>
<path d="M4880 320 c0 -5 11 -10 25 -10 l25 0 -20 -40 c-23 -45 -24 -50 -10
-50 11 0 50 73 50 95 0 11 -10 15 -35 15 -19 0 -35 -4 -35 -10z"/>
<path d="M4982 291 c-28 -49 -27 -51 2 -51 13 0 26 -6 28 -12 3 -9 10 -7 24 6
13 14 15 21 6 24 -6 2 -12 19 -12 38 0 46 -21 44 -48 -5z m24 -28 c-11 -11
-17 4 -9 23 7 18 8 18 11 1 2 -10 1 -21 -2 -24z"/>
<path d="M4746 234 c-11 -28 -6 -39 9 -20 8 11 15 23 15 28 0 14 -18 9 -24 -8z"/>
<path d="M5268 331 c-25 -25 -22 -50 7 -61 14 -5 25 -15 25 -21 0 -7 -10 -9
-25 -7 -28 6 -30 1 -12 -23 12 -15 14 -15 35 1 29 24 28 48 -3 62 -14 6 -25
16 -25 21 0 5 11 7 25 5 28 -6 30 -1 11 25 -16 21 -16 20 -38 -2z"/>
<path d="M6320 270 c0 -5 9 -10 20 -10 11 0 20 5 20 10 0 6 -9 10 -20 10 -11
0 -20 -4 -20 -10z"/>
<path d="M6768 331 c-25 -25 -22 -50 7 -61 14 -5 25 -15 25 -21 0 -7 -10 -9
-25 -7 -28 6 -30 1 -12 -23 12 -15 14 -15 35 1 29 24 28 48 -3 62 -14 6 -25
16 -25 21 0 5 11 7 25 5 28 -6 30 -1 11 25 -16 21 -16 20 -38 -2z"/>
<path d="M7820 270 c0 -5 9 -10 20 -10 11 0 20 5 20 10 0 6 -9 10 -20 10 -11
0 -20 -4 -20 -10z"/>
<path d="M143 4760 c0 -54 2 -64 6 -35 5 31 10 40 26 40 16 0 21 -9 26 -40 6
-41 10 -42 13 -2 4 37 -13 60 -39 54 -20 -3 -25 1 -28 27 -2 17 -4 -3 -4 -44z"/>
<path d="M52 4808 c-19 -19 -15 -31 19 -59 36 -29 32 -54 -8 -46 -16 3 -21 1
-15 -5 5 -5 20 -8 33 -6 36 5 39 54 5 70 -35 15 -36 52 -1 46 13 -3 22 -1 19
3 -8 13 -38 11 -52 -3z"/>
<path d="M581 4803 c0 -13 -5 -23 -10 -23 -5 0 -7 -9 -4 -20 3 -13 0 -20 -8
-20 -10 0 -11 -3 -3 -8 7 -4 14 -16 17 -27 4 -18 5 -18 6 3 0 12 7 22 15 22 8
0 17 -10 19 -22 l4 -23 2 23 c0 12 5 22 11 22 5 0 7 7 3 16 -3 9 0 20 8 25 12
7 12 9 0 9 -8 0 -11 7 -8 20 3 11 1 20 -4 20 -5 0 -9 -9 -9 -20 0 -27 -28 -25
-33 3 l-4 22 -2 -22z m33 -48 c-4 -8 -10 -15 -15 -15 -5 0 -9 7 -9 15 0 8 7
15 15 15 9 0 12 -6 9 -15z"/>
<path d="M679 4803 c-12 -15 -12 -16 4 -10 15 6 17 0 17 -43 0 -38 -4 -50 -17
-53 -10 -3 0 -5 22 -5 22 0 32 2 23 5 -15 4 -18 16 -18 64 0 61 -8 71 -31 42z"/>
<path d="M845 4808 c-2 -7 -13 -37 -24 -65 -10 -29 -15 -53 -10 -53 5 0 12 7
15 15 4 9 19 15 35 15 19 0 29 -5 29 -15 0 -8 5 -15 10 -15 14 0 13 5 -11 71
-21 57 -35 72 -44 47z m29 -55 c6 -19 4 -23 -14 -23 -18 0 -21 4 -16 23 3 12
6 29 6 37 1 13 2 13 9 0 5 -8 12 -25 15 -37z"/>
<path d="M1240 4810 c0 -5 5 -10 11 -10 5 0 7 5 4 10 -3 6 -8 10 -11 10 -2 0
-4 -4 -4 -10z"/>
<path d="M1490 4810 c0 -5 5 -10 11 -10 5 0 7 5 4 10 -3 6 -8 10 -11 10 -2 0
-4 -4 -4 -10z"/>
<path d="M448 4789 c-2 -7 -1 -30 2 -53 4 -31 10 -41 25 -43 11 -2 14 0 8 3
-16 7 -17 74 -2 74 6 0 4 7 -5 15 -18 18 -23 19 -28 4z"/>
<path d="M1418 4789 c-2 -7 -1 -30 2 -53 4 -31 10 -41 25 -43 11 -2 14 0 8 3
-16 7 -17 74 -2 74 6 0 4 7 -5 15 -18 18 -23 19 -28 4z"/>
<path d="M252 4768 c-15 -15 -15 -51 0 -66 13 -13 54 -16 62 -4 2 4 -7 8 -21
7 -14 0 -28 6 -30 13 -3 8 6 12 26 12 24 0 31 4 31 19 0 29 -45 42 -68 19z
m52 -13 c4 -11 -1 -15 -19 -15 -24 0 -32 10 -18 23 11 12 31 8 37 -8z"/>
<path d="M352 4768 c-15 -15 -15 -51 0 -66 13 -13 54 -16 62 -4 2 4 -7 8 -21
7 -14 0 -28 6 -30 13 -3 8 6 12 26 12 19 0 31 5 31 13 0 18 -21 37 -40 37 -9
0 -21 -5 -28 -12z m52 -13 c4 -11 -1 -15 -19 -15 -24 0 -32 10 -18 23 11 12
31 8 37 -8z"/>
<path d="M942 4768 c-15 -15 -15 -51 0 -66 14 -14 44 -16 52 -3 3 4 -5 6 -18
4 -17 -4 -25 1 -29 17 -9 34 3 52 29 47 13 -2 21 0 18 4 -8 13 -38 11 -52 -3z"/>
<path d="M1022 4768 c-30 -30 -2 -85 38 -75 13 3 20 0 20 -9 0 -12 -82 -14
-527 -16 l-528 -3 530 -5 c292 -3 679 -3 860 0 l330 6 -326 2 -326 2 2 53 3
54 -33 1 c-17 1 -37 -4 -43 -10z m53 -33 c0 -23 -4 -30 -20 -30 -21 0 -31 25
-21 51 11 28 41 12 41 -21z"/>
<path d="M1134 4740 c1 -44 2 -45 34 -46 32 -1 32 -1 31 45 l-2 46 -6 -40 c-5
-31 -10 -40 -26 -40 -16 0 -21 9 -26 40 l-7 40 2 -45z"/>
<path d="M1243 4735 c0 -27 2 -38 4 -22 2 15 2 37 0 50 -2 12 -4 0 -4 -28z"/>
<path d="M1287 4773 c-14 -13 -6 -30 19 -41 28 -13 23 -37 -7 -29 -11 3 -17 1
-13 -4 9 -15 44 -10 51 8 4 11 -1 22 -15 31 -28 18 -29 36 -2 29 11 -3 18 -1
14 4 -6 10 -38 12 -47 2z"/>
<path d="M1373 4735 c0 -27 2 -38 4 -22 2 15 2 37 0 50 -2 12 -4 0 -4 -28z"/>
<path d="M1493 4735 c0 -27 2 -38 4 -22 2 15 2 37 0 50 -2 12 -4 0 -4 -28z"/>
<path d="M1542 4768 c-28 -28 -7 -78 33 -78 27 0 45 18 45 45 0 27 -18 45 -45
45 -12 0 -26 -5 -33 -12z m53 -33 c0 -23 -4 -30 -20 -30 -21 0 -31 25 -21 51
11 28 41 12 41 -21z"/>
<path d="M1651 4730 l2 -45 6 40 c5 31 10 40 26 40 16 0 21 -8 25 -40 3 -22 8
-35 12 -29 7 11 2 60 -8 76 -3 4 -19 7 -35 6 -28 -2 -29 -4 -28 -48z"/>
<path d="M51 4503 c1 -32 4 -48 6 -36 3 13 13 23 26 25 17 2 22 10 22 33 0 25
-4 30 -27 33 -28 3 -28 3 -27 -55z m44 22 c0 -11 -8 -21 -17 -23 -14 -3 -18 3
-18 23 0 20 4 26 18 23 9 -2 17 -12 17 -23z"/>
<path d="M726 4544 c-45 -44 10 -118 63 -85 10 7 4 9 -20 8 -33 -2 -34 -1 -34
38 0 37 2 40 28 40 15 -1 27 3 27 7 0 14 -48 8 -64 -8z"/>
<path d="M541 4543 c-1 -8 -15 -13 -36 -13 -34 0 -35 -1 -35 -40 0 -48 17 -54
22 -7 2 24 8 33 26 35 19 3 22 -1 22 -32 0 -28 4 -36 18 -35 10 0 12 3 5 6 -7
2 -13 18 -13 34 0 22 5 29 19 29 21 0 47 -60 37 -85 -3 -8 -1 -15 4 -15 6 0
10 1 10 3 0 1 9 26 20 55 11 28 16 52 11 52 -5 0 -13 -15 -17 -32 l-7 -33 -15
33 c-11 22 -23 32 -38 32 -12 0 -25 6 -27 13 -4 10 -6 10 -6 0z"/>
<path d="M982 4534 c-7 -8 -8 -14 -2 -14 5 0 10 -16 10 -35 0 -27 4 -35 18
-34 10 0 12 3 5 6 -21 8 -16 63 5 64 13 0 14 2 2 6 -8 3 -17 9 -20 13 -3 4
-11 2 -18 -6z"/>
<path d="M130 4490 c0 -22 5 -40 10 -40 6 0 10 13 10 30 0 17 7 33 18 39 14 9
13 10 -10 11 -26 0 -28 -3 -28 -40z"/>
<path d="M200 4515 c-26 -32 13 -81 48 -59 34 22 22 74 -18 74 -10 0 -23 -7
-30 -15z m54 -10 c8 -22 -4 -45 -24 -45 -20 0 -32 23 -24 45 4 8 14 15 24 15
10 0 20 -7 24 -15z"/>
<path d="M290 4474 c0 -30 5 -54 10 -54 6 0 10 8 10 18 0 13 7 18 23 18 19 -1
22 4 22 34 0 32 -2 35 -32 37 l-33 1 0 -54z m55 16 c0 -13 -6 -25 -12 -27 -16
-6 -27 21 -19 43 9 23 31 11 31 -16z"/>
<path d="M392 4518 c-15 -15 -15 -41 0 -56 14 -14 44 -16 52 -4 2 4 -7 8 -21
7 -14 0 -28 6 -30 13 -3 8 6 12 27 12 25 0 31 4 28 18 -4 21 -39 27 -56 10z
m43 -8 c4 -6 -5 -10 -20 -10 -15 0 -24 4 -20 10 3 6 12 10 20 10 8 0 17 -4 20
-10z"/>
<path d="M820 4515 c-26 -32 13 -81 48 -59 21 14 28 54 10 65 -20 13 -44 11
-58 -6z m54 -10 c8 -22 -4 -45 -24 -45 -10 0 -20 7 -24 15 -8 22 4 45 24 45
10 0 20 -7 24 -15z"/>
<path d="M914 4518 c-4 -6 2 -19 14 -29 27 -22 28 -33 2 -26 -11 3 -20 1 -20
-4 0 -5 9 -9 20 -9 31 0 35 27 9 51 l-24 21 23 -5 c12 -3 20 -1 16 4 -7 13
-31 11 -40 -3z"/>
<path d="M1044 4518 c-4 -6 2 -19 14 -29 27 -22 28 -33 2 -26 -11 3 -20 1 -20
-4 0 -5 9 -9 20 -9 27 0 38 30 17 42 -21 11 -22 32 -1 24 8 -3 12 -2 9 4 -8
14 -32 13 -41 -2z"/>
<path d="M260 4320 c0 -5 5 -10 10 -10 6 0 10 5 10 10 0 6 -4 10 -10 10 -5 0
-10 -4 -10 -10z"/>
<path d="M350 4311 c0 -13 -8 -21 -22 -23 -19 -2 -23 -9 -23 -38 0 -33 2 -35
33 -36 l32 -1 0 59 c0 32 -4 58 -10 58 -5 0 -10 -9 -10 -19z m-2 -58 c-3 -30
-23 -41 -31 -18 -9 21 2 45 20 45 10 0 13 -9 11 -27z"/>
<path d="M720 4270 c0 -33 4 -60 10 -60 6 0 10 27 10 60 0 33 -4 60 -10 60 -6
0 -10 -27 -10 -60z"/>
<path d="M53 4265 c0 -33 2 -45 4 -27 2 18 2 45 0 60 -2 15 -4 0 -4 -33z"/>
<path d="M816 4304 c-45 -44 10 -118 63 -85 10 7 4 9 -20 8 -33 -2 -34 -1 -34
38 0 39 1 40 32 39 18 -1 30 2 27 7 -9 15 -51 10 -68 -7z"/>
<path d="M572 4293 c-8 -8 -9 -13 -2 -13 5 0 10 -16 10 -35 0 -27 4 -35 18
-34 10 0 12 3 5 6 -15 5 -18 60 -4 65 5 2 4 8 -3 14 -8 8 -15 7 -24 -3z"/>
<path d="M1072 4294 c-7 -8 -8 -14 -2 -14 5 0 10 -16 10 -35 0 -27 4 -35 18
-34 10 0 12 3 5 6 -21 8 -16 63 5 64 13 0 14 2 2 6 -8 3 -17 9 -20 13 -3 4
-11 2 -18 -6z"/>
<path d="M90 4249 c0 -47 17 -53 22 -7 4 46 28 49 28 4 0 -20 5 -36 11 -36 6
0 9 16 7 38 -3 34 -6 37 -35 39 -32 1 -33 0 -33 -38z"/>
<path d="M190 4275 c-24 -29 14 -85 41 -58 9 9 7 11 -8 7 -25 -7 -37 9 -28 37
5 14 13 19 26 16 10 -3 17 -1 13 4 -8 14 -30 11 -44 -6z"/>
<path d="M260 4250 c0 -22 5 -40 10 -40 6 0 10 18 10 40 0 22 -4 40 -10 40 -5
0 -10 -18 -10 -40z"/>
<path d="M402 4278 c-15 -15 -15 -41 0 -56 14 -14 44 -16 52 -4 2 4 -7 8 -21
7 -14 0 -28 6 -30 13 -3 8 6 12 27 12 25 0 31 4 28 18 -4 21 -39 27 -56 10z
m43 -8 c4 -6 -5 -10 -20 -10 -15 0 -24 4 -20 10 3 6 12 10 20 10 8 0 17 -4 20
-10z"/>
<path d="M480 4249 c0 -47 17 -52 22 -7 4 46 28 49 28 4 0 -20 5 -36 10 -36
12 0 13 49 2 66 -4 7 -19 12 -34 12 -26 0 -28 -4 -28 -39z"/>
<path d="M635 4280 c-4 -7 2 -9 19 -4 16 4 26 2 26 -4 0 -6 -10 -12 -22 -14
-15 -2 -23 -10 -23 -23 0 -15 8 -21 33 -23 28 -3 32 0 32 22 0 13 -3 31 -6 40
-7 18 -49 22 -59 6z m45 -39 c0 -14 -18 -23 -30 -16 -6 4 -8 11 -5 16 8 12 35
12 35 0z"/>
<path d="M910 4275 c-26 -32 13 -81 48 -59 34 22 22 74 -18 74 -10 0 -23 -7
-30 -15z m54 -10 c8 -22 -4 -45 -24 -45 -20 0 -32 23 -24 45 4 8 14 15 24 15
10 0 20 -7 24 -15z"/>
<path d="M1004 4278 c-4 -6 2 -19 14 -29 27 -22 28 -33 2 -26 -11 3 -20 1 -20
-5 0 -5 10 -8 22 -6 30 4 35 34 8 43 -11 3 -18 11 -14 16 3 6 13 8 21 5 8 -3
11 -1 8 4 -8 14 -32 13 -41 -2z"/>
<path d="M1134 4278 c-4 -6 2 -19 14 -29 27 -22 28 -33 2 -26 -11 3 -20 1 -20
-5 0 -5 10 -8 22 -6 30 4 35 34 8 43 -11 3 -18 11 -14 16 3 6 13 8 21 5 8 -3
11 -1 8 4 -8 14 -32 13 -41 -2z"/>
<path d="M190 4071 c0 -13 -8 -21 -22 -23 -19 -2 -23 -9 -23 -38 0 -33 2 -35
33 -35 l32 -1 0 58 c0 32 -4 58 -10 58 -5 0 -10 -9 -10 -19z m-2 -58 c-3 -30
-25 -42 -34 -19 -9 22 2 46 21 46 12 0 15 -8 13 -27z"/>
<path d="M370 4080 c0 -5 5 -10 10 -10 6 0 10 5 10 10 0 6 -4 10 -10 10 -5 0
-10 -4 -10 -10z"/>
<path d="M500 4080 c0 -5 5 -10 10 -10 6 0 10 5 10 10 0 6 -4 10 -10 10 -5 0
-10 -4 -10 -10z"/>
<path d="M880 4080 c0 -5 5 -10 10 -10 6 0 10 5 10 10 0 6 -4 10 -10 10 -5 0
-10 -4 -10 -10z"/>
<path d="M53 4025 c-12 -30 -17 -55 -13 -55 4 0 10 7 14 15 3 8 17 15 31 15
16 0 25 -6 25 -15 0 -8 5 -15 11 -15 11 0 7 19 -17 77 -8 18 -18 33 -23 33 -4
0 -17 -25 -28 -55z m43 -12 c-2 -3 -11 -3 -19 -1 -11 2 -12 9 -5 28 l10 25 9
-24 c5 -13 7 -26 5 -28z"/>
<path d="M1146 4064 c-20 -20 -20 -58 0 -78 16 -17 49 -21 58 -8 2 4 -8 8 -22
7 -25 0 -27 3 -27 40 0 37 2 40 27 40 14 -1 24 3 22 7 -9 13 -42 9 -58 -8z"/>
<path d="M612 4054 c-7 -8 -8 -14 -2 -14 5 0 10 -16 10 -35 0 -27 4 -35 18
-34 10 0 12 3 5 6 -21 8 -16 63 5 64 13 0 14 2 2 6 -8 3 -17 9 -20 13 -3 4
-11 2 -18 -6z"/>
<path d="M822 4054 c-7 -8 -8 -14 -2 -14 5 0 10 -16 10 -35 0 -27 4 -35 18
-34 10 0 12 3 5 6 -21 8 -16 63 5 64 13 0 14 2 2 6 -8 3 -17 9 -20 13 -3 4
-11 2 -18 -6z"/>
<path d="M1402 4054 c-7 -8 -8 -14 -2 -14 5 0 10 -16 10 -35 0 -27 4 -35 18
-34 10 0 12 3 5 6 -21 8 -16 63 5 64 13 0 14 2 2 6 -8 3 -17 9 -20 13 -3 4
-11 2 -18 -6z"/>
<path d="M230 4009 c0 -47 17 -52 22 -7 4 46 28 49 28 4 0 -44 18 -48 22 -4 4
46 28 49 28 4 0 -20 5 -36 10 -36 12 0 13 50 2 66 -4 6 -31 11 -59 11 l-53 0
0 -38z"/>
<path d="M370 4010 c0 -22 5 -40 10 -40 6 0 10 18 10 40 0 22 -4 40 -10 40 -5
0 -10 -18 -10 -40z"/>
<path d="M410 4009 c0 -47 17 -53 22 -7 4 46 28 49 28 4 0 -20 5 -36 11 -36 6
0 9 16 7 38 -3 34 -6 37 -35 39 -32 1 -33 0 -33 -38z"/>
<path d="M500 4010 c0 -22 5 -40 10 -40 6 0 10 18 10 40 0 22 -4 40 -10 40 -5
0 -10 -18 -10 -40z"/>
<path d="M544 4038 c-4 -6 2 -19 14 -29 27 -22 28 -33 2 -26 -11 3 -20 1 -20
-4 0 -5 9 -9 20 -9 27 0 38 30 17 42 -21 11 -22 32 -1 24 8 -3 12 -2 9 4 -8
14 -32 13 -41 -2z"/>
<path d="M670 4010 c0 -22 5 -40 10 -40 6 0 10 13 10 30 0 17 7 33 18 39 14 9
13 10 -10 11 -26 0 -28 -3 -28 -40z"/>
<path d="M735 4040 c-4 -7 2 -9 19 -4 16 4 26 2 26 -4 0 -6 -10 -12 -22 -14
-15 -2 -23 -10 -23 -23 0 -15 8 -21 33 -23 28 -3 32 0 32 22 0 13 -3 31 -6 40
-7 18 -49 22 -59 6z m45 -39 c0 -14 -18 -23 -30 -16 -6 4 -8 11 -5 16 8 12 35
12 35 0z"/>
<path d="M880 4010 c0 -22 5 -40 10 -40 6 0 10 18 10 40 0 22 -4 40 -10 40 -5
0 -10 -18 -10 -40z"/>
<path d="M927 4010 c9 -22 20 -40 24 -40 5 0 16 16 24 36 18 42 18 44 6 44 -4
0 -13 -15 -18 -32 l-11 -33 -13 33 c-7 17 -17 32 -20 32 -4 0 0 -18 8 -40z"/>
<path d="M1012 4038 c-15 -15 -15 -41 0 -56 14 -14 44 -16 52 -4 2 4 -7 8 -21
7 -14 0 -28 6 -30 13 -3 8 6 12 27 12 25 0 31 4 28 18 -4 21 -39 27 -56 10z
m43 -8 c4 -6 -5 -10 -20 -10 -15 0 -24 4 -20 10 3 6 12 10 20 10 8 0 17 -4 20
-10z"/>
<path d="M1240 4035 c-26 -32 13 -81 48 -59 21 14 28 54 10 65 -20 13 -44 11
-58 -6z m54 -10 c8 -22 -4 -45 -24 -45 -10 0 -20 7 -24 15 -8 22 4 45 24 45
10 0 20 -7 24 -15z"/>
<path d="M1334 4038 c-4 -6 2 -19 14 -29 27 -22 28 -33 2 -26 -11 3 -20 1 -20
-5 0 -5 10 -8 22 -6 30 4 35 34 8 43 -11 3 -18 11 -14 16 3 6 13 8 21 5 8 -3
11 -1 8 4 -8 14 -32 13 -41 -2z"/>
<path d="M1464 4038 c-4 -6 2 -19 14 -29 27 -22 28 -33 2 -26 -11 3 -20 1 -20
-4 0 -5 9 -9 20 -9 31 0 35 27 9 51 l-24 21 23 -5 c12 -3 20 -1 16 4 -7 13
-31 11 -40 -3z"/>
<path d="M230 3831 c0 -13 -8 -21 -22 -23 -19 -2 -23 -9 -23 -38 0 -33 2 -35
33 -35 l32 -1 0 58 c0 32 -4 58 -10 58 -5 0 -10 -9 -10 -19z m-2 -58 c-3 -30
-23 -41 -31 -18 -9 21 2 45 20 45 10 0 13 -9 11 -27z"/>
<path d="M270 3840 c0 -5 5 -10 10 -10 6 0 10 5 10 10 0 6 -4 10 -10 10 -5 0
-10 -4 -10 -10z"/>
<path d="M53 3785 c0 -33 2 -45 4 -27 2 18 2 45 0 60 -2 15 -4 0 -4 -33z"/>
<path d="M656 3824 c-45 -44 10 -118 63 -85 10 7 4 9 -20 8 -33 -2 -34 -1 -34
38 0 39 1 40 32 39 18 -1 30 2 27 7 -9 15 -51 10 -68 -7z"/>
<path d="M542 3814 c-7 -8 -8 -14 -2 -14 5 0 10 -16 10 -35 0 -27 4 -35 18
-34 10 0 12 3 5 6 -21 8 -16 63 5 64 13 0 14 2 2 6 -8 3 -17 9 -20 13 -3 4
-11 2 -18 -6z"/>
<path d="M912 3814 c-7 -8 -8 -14 -2 -14 5 0 10 -16 10 -35 0 -27 4 -35 18
-34 10 0 12 3 5 6 -21 8 -16 63 5 64 13 0 14 2 2 6 -8 3 -17 9 -20 13 -3 4
-11 2 -18 -6z"/>
<path d="M90 3769 c0 -47 17 -53 22 -7 4 46 28 49 28 4 0 -20 5 -36 11 -36 6
0 9 16 7 38 -3 34 -6 37 -35 39 -32 1 -33 0 -33 -38z"/>
<path d="M270 3770 c0 -22 5 -40 10 -40 6 0 10 18 10 40 0 22 -4 40 -10 40 -5
0 -10 -18 -10 -40z"/>
<path d="M310 3770 c0 -22 5 -40 10 -40 6 0 10 13 10 30 0 17 7 33 18 39 14 9
13 10 -10 11 -26 0 -28 -3 -28 -40z"/>
<path d="M382 3798 c-15 -15 -15 -41 0 -56 14 -14 44 -16 52 -4 2 4 -7 8 -21
7 -14 0 -28 6 -30 13 -3 8 6 12 27 12 25 0 31 4 28 18 -4 21 -39 27 -56 10z
m43 -8 c4 -6 -5 -10 -20 -10 -15 0 -24 4 -20 10 3 6 12 10 20 10 8 0 17 -4 20
-10z"/>
<path d="M472 3798 c-25 -25 -6 -68 30 -68 10 0 18 4 18 8 0 5 -10 8 -22 8
-18 -1 -23 5 -23 24 0 19 5 25 23 24 12 0 22 3 22 8 0 12 -34 10 -48 -4z"/>
<path d="M750 3795 c-26 -32 13 -81 48 -59 34 22 22 74 -18 74 -10 0 -23 -7
-30 -15z m54 -10 c8 -22 -4 -45 -24 -45 -20 0 -32 23 -24 45 4 8 14 15 24 15
10 0 20 -7 24 -15z"/>
<path d="M844 3798 c-4 -6 2 -19 14 -29 27 -22 28 -33 2 -26 -11 3 -20 1 -20
-5 0 -5 10 -8 22 -6 30 4 35 34 8 43 -11 3 -18 11 -14 16 3 6 13 8 21 5 8 -3
11 -1 8 4 -8 14 -32 13 -41 -2z"/>
<path d="M974 3798 c-4 -6 2 -19 14 -29 27 -22 28 -33 2 -26 -11 3 -20 1 -20
-5 0 -5 10 -8 22 -6 30 4 35 34 8 43 -11 3 -18 11 -14 16 3 6 13 8 21 5 8 -3
11 -1 8 4 -8 14 -32 13 -41 -2z"/>
<path d="M2030 3550 c0 -33 4 -60 10 -60 6 0 10 27 10 60 0 33 -4 60 -10 60
-6 0 -10 -27 -10 -60z"/>
<path d="M1613 3583 c-4 -11 3 -24 22 -38 30 -25 26 -50 -8 -41 -14 3 -17 2
-10 -5 17 -17 48 -6 51 17 2 14 -6 27 -23 38 -28 18 -24 41 6 33 11 -3 17 -1
13 4 -9 15 -44 10 -51 -8z"/>
<path d="M1697 3593 c19 -4 23 -12 26 -56 l3 -52 2 52 c2 45 5 52 25 56 12 2
0 4 -28 4 -27 0 -40 -2 -28 -4z"/>
<path d="M1882 3573 c-8 -8 -9 -13 -2 -13 5 0 10 -16 10 -35 0 -27 4 -35 18
-34 10 0 12 3 5 6 -15 5 -18 60 -4 65 5 2 4 8 -3 14 -8 8 -15 7 -24 -3z"/>
<path d="M1790 3555 c-26 -32 13 -81 48 -59 21 14 28 54 10 65 -20 13 -44 11
-58 -6z m54 -10 c8 -22 -4 -45 -24 -45 -10 0 -20 7 -24 15 -8 22 4 45 24 45
10 0 20 -7 24 -15z"/>
<path d="M1945 3560 c-4 -7 2 -9 19 -4 16 4 26 2 26 -4 0 -6 -10 -12 -22 -14
-15 -2 -23 -10 -23 -23 0 -15 8 -21 33 -23 28 -3 32 0 32 22 0 13 -3 31 -6 40
-7 18 -49 22 -59 6z m45 -39 c0 -14 -18 -23 -30 -16 -6 4 -8 11 -5 16 8 12 35
12 35 0z"/>
<path d="M143 3020 c0 -54 2 -64 6 -35 5 31 10 40 26 40 16 0 21 -8 25 -40 3
-24 8 -35 13 -28 8 13 3 55 -8 74 -4 6 -18 9 -31 6 -19 -3 -24 1 -27 27 -2 17
-4 -3 -4 -44z"/>
<path d="M52 3068 c-19 -19 -15 -31 19 -59 36 -29 32 -54 -8 -46 -16 3 -21 1
-14 -6 5 -5 21 -7 35 -3 36 9 36 52 1 68 -34 15 -35 52 0 46 13 -3 22 -1 19 3
-8 13 -38 11 -52 -3z"/>
<path d="M581 3063 c0 -13 -5 -23 -10 -23 -5 0 -7 -9 -4 -20 3 -13 0 -20 -8
-20 -10 0 -11 -3 -3 -8 7 -4 14 -16 17 -27 4 -18 5 -18 6 3 0 12 7 22 15 22 8
0 17 -10 19 -22 l4 -23 2 23 c0 12 5 22 10 22 5 0 7 9 4 20 -3 13 0 20 8 20
10 0 11 3 3 8 -7 4 -14 16 -17 27 -4 18 -5 18 -6 -2 0 -13 -7 -23 -15 -23 -8
0 -17 10 -19 23 l-4 22 -2 -22z m33 -48 c-4 -8 -10 -15 -15 -15 -5 0 -9 7 -9
15 0 8 7 15 15 15 9 0 12 -6 9 -15z"/>
<path d="M665 3070 c-4 -7 2 -9 19 -4 41 10 44 -20 7 -72 l-32 -44 43 1 c30 2
34 3 16 6 -33 5 -35 14 -8 38 14 13 20 29 18 49 -2 25 -8 32 -30 34 -14 2 -29
-2 -33 -8z"/>
<path d="M820 3015 c0 -65 0 -65 28 -65 36 0 62 28 62 67 0 36 -27 63 -63 63
-26 0 -27 -1 -27 -65z m60 40 c17 -20 15 -76 -2 -86 -7 -5 -21 -9 -30 -9 -15
0 -18 9 -18 55 0 47 3 55 19 55 10 0 24 -7 31 -15z"/>
<path d="M1120 3070 c0 -5 5 -10 11 -10 5 0 7 5 4 10 -3 6 -8 10 -11 10 -2 0
-4 -4 -4 -10z"/>
<path d="M448 3049 c-2 -7 -1 -30 2 -53 4 -31 10 -41 25 -43 11 -2 14 0 8 3
-16 7 -17 74 -2 74 6 0 4 7 -5 15 -18 18 -23 19 -28 4z"/>
<path d="M252 3028 c-15 -15 -15 -51 0 -66 13 -13 54 -16 62 -4 2 4 -7 8 -21
7 -14 0 -28 6 -30 13 -3 8 6 12 26 12 19 0 31 5 31 13 0 18 -21 37 -40 37 -9
0 -21 -5 -28 -12z m52 -13 c4 -11 -1 -15 -19 -15 -24 0 -32 10 -18 23 11 12
31 8 37 -8z"/>
<path d="M352 3028 c-15 -15 -15 -51 0 -66 13 -13 54 -16 62 -4 2 4 -7 8 -21
7 -14 0 -28 6 -30 13 -3 8 6 12 26 12 24 0 31 4 31 19 0 29 -45 42 -68 19z
m52 -13 c4 -11 -1 -15 -19 -15 -24 0 -32 10 -18 23 11 12 31 8 37 -8z"/>
<path d="M942 3028 c-15 -15 -15 -51 0 -66 13 -13 54 -16 62 -4 2 4 -7 8 -21
7 -14 0 -28 6 -30 13 -3 8 6 12 26 12 19 0 31 5 31 13 0 18 -21 37 -40 37 -9
0 -21 -5 -28 -12z m52 -13 c4 -11 -1 -15 -19 -15 -24 0 -32 10 -18 23 11 12
31 8 37 -8z"/>
<path d="M1037 3033 c-14 -13 -6 -30 19 -41 28 -13 23 -37 -7 -29 -11 3 -17 1
-13 -4 9 -15 44 -10 51 8 4 11 -1 22 -15 31 -28 18 -29 36 -2 29 11 -3 18 -1
14 4 -6 10 -38 12 -47 2z"/>
<path d="M1123 2995 c0 -27 2 -38 4 -22 2 15 2 37 0 50 -2 12 -4 0 -4 -28z"/>
<path d="M1172 3028 c-5 -7 -10 -26 -10 -43 0 -16 0 -36 -1 -42 -1 -10 -123
-13 -568 -15 l-568 -2 590 -6 c325 -3 624 -2 665 1 72 6 73 6 18 7 -47 2 -58
5 -63 22 -4 14 -16 20 -38 21 -29 2 -30 2 -5 6 18 3 30 13 37 34 9 28 9 29
-18 29 -16 0 -33 -6 -39 -12z m38 -18 c0 -11 -7 -20 -15 -20 -8 0 -15 9 -15
20 0 11 7 20 15 20 8 0 15 -9 15 -20z m10 -65 c0 -9 -9 -15 -25 -15 -24 0 -32
10 -18 23 12 13 43 7 43 -8z"/>
<path d="M1261 2990 l2 -45 6 40 c5 31 10 40 26 40 16 0 21 -8 23 -37 2 -21 8
-38 14 -38 6 0 8 13 3 37 -9 51 -12 54 -46 51 -28 -2 -29 -4 -28 -48z"/>
<path d="M310 2820 c0 -5 5 -10 10 -10 6 0 10 5 10 10 0 6 -4 10 -10 10 -5 0
-10 -4 -10 -10z"/>
<path d="M50 2765 c0 -52 2 -55 24 -55 32 0 56 25 56 59 0 35 -17 51 -52 51
-27 0 -28 -1 -28 -55z m61 24 c15 -29 -3 -69 -31 -69 -17 0 -20 7 -20 45 0 38
3 45 20 45 10 0 24 -10 31 -21z"/>
<path d="M576 2804 c-34 -34 -9 -94 39 -94 13 0 26 4 29 9 3 5 -9 8 -27 7 -31
-1 -32 0 -32 39 0 39 1 40 34 38 24 -1 30 1 20 8 -21 13 -46 11 -63 -7z"/>
<path d="M832 2793 c-8 -8 -9 -13 -2 -13 5 0 10 -16 10 -35 0 -27 4 -35 18
-34 10 0 12 3 5 6 -15 5 -18 60 -4 65 5 2 4 8 -3 14 -8 8 -15 7 -24 -3z"/>
<path d="M162 2778 c-15 -15 -15 -41 0 -56 14 -14 44 -16 52 -4 2 4 -7 8 -21
7 -14 0 -28 6 -30 13 -3 8 6 12 27 12 25 0 31 4 28 18 -4 21 -39 27 -56 10z
m43 -8 c4 -6 -5 -10 -20 -10 -15 0 -24 4 -20 10 3 6 12 10 20 10 8 0 17 -4 20
-10z"/>
<path d="M244 2778 c-4 -6 2 -19 14 -29 27 -22 28 -33 2 -26 -11 3 -20 1 -20
-4 0 -5 9 -9 20 -9 27 0 38 30 17 42 -21 11 -22 32 -1 24 8 -3 12 -2 9 4 -8
14 -32 13 -41 -2z"/>
<path d="M310 2750 c0 -22 5 -40 10 -40 6 0 10 18 10 40 0 22 -4 40 -10 40 -5
0 -10 -18 -10 -40z"/>
<path d="M357 2783 c-11 -10 -8 -91 4 -98 5 -4 21 -4 35 -1 35 9 28 40 -11 45
-28 4 -29 4 -6 10 13 4 28 16 32 29 7 19 5 22 -20 22 -15 0 -31 -3 -34 -7z
m38 -12 c7 -12 -12 -24 -25 -16 -11 7 -4 25 10 25 5 0 11 -4 15 -9z m10 -66
c0 -5 -10 -11 -22 -13 -16 -2 -23 2 -23 13 0 11 7 15 23 13 12 -2 22 -7 22
-13z"/>
<path d="M430 2749 c0 -47 17 -53 22 -7 4 46 28 49 28 4 0 -20 5 -36 11 -36 6
0 9 16 7 38 -3 34 -6 37 -35 39 -32 1 -33 0 -33 -38z"/>
<path d="M670 2775 c-26 -32 13 -81 48 -59 21 14 28 54 10 65 -20 13 -44 11
-58 -6z m54 -10 c8 -22 -4 -45 -24 -45 -10 0 -20 7 -24 15 -8 22 4 45 24 45
10 0 20 -7 24 -15z"/>
<path d="M764 2778 c-4 -6 2 -19 14 -29 27 -22 28 -33 2 -26 -11 3 -20 1 -20
-4 0 -5 9 -9 20 -9 27 0 38 30 17 42 -21 11 -22 32 -1 24 8 -3 12 -2 9 4 -8
14 -32 13 -41 -2z"/>
<path d="M894 2778 c-4 -6 2 -19 14 -29 27 -22 28 -33 2 -26 -11 3 -20 1 -20
-4 0 -5 9 -9 20 -9 27 0 38 30 17 42 -21 11 -22 32 -1 24 8 -3 12 -2 9 4 -8
14 -32 13 -41 -2z"/>
<path d="M270 2563 c0 -26 -3 -30 -20 -26 -26 7 -50 -13 -50 -42 0 -30 22 -47
56 -42 27 3 28 6 29 61 0 31 -3 63 -7 69 -4 7 -8 -2 -8 -20z m-5 -68 c0 -23
-4 -30 -20 -30 -21 0 -31 25 -21 51 11 28 41 12 41 -21z"/>
<path d="M53 2515 c0 -38 2 -53 4 -32 2 20 2 52 0 70 -2 17 -4 1 -4 -38z"/>
<path d="M320 2570 c0 -5 5 -10 11 -10 5 0 7 5 4 10 -3 6 -8 10 -11 10 -2 0
-4 -4 -4 -10z"/>
<path d="M746 2558 c-42 -60 16 -137 74 -98 11 8 8 9 -13 4 -36 -8 -57 10 -57
51 0 38 21 60 50 52 11 -3 18 -1 14 4 -10 17 -53 9 -68 -13z"/>
<path d="M618 2549 c-2 -7 -1 -30 2 -53 4 -31 10 -41 25 -43 11 -2 14 0 8 3
-16 7 -17 74 -2 74 6 0 4 7 -5 15 -18 18 -23 19 -28 4z"/>
<path d="M1038 2549 c-2 -7 -1 -30 2 -53 4 -31 10 -41 25 -43 11 -2 14 0 8 3
-16 7 -17 74 -2 74 6 0 4 7 -5 15 -18 18 -23 19 -28 4z"/>
<path d="M101 2490 l2 -45 6 40 c5 31 10 40 26 40 16 0 21 -8 23 -37 2 -21 7
-38 11 -38 8 0 5 65 -4 80 -4 6 -20 9 -36 8 -28 -2 -29 -4 -28 -48z"/>
<path d="M323 2495 c0 -27 2 -38 4 -22 2 15 2 37 0 50 -2 12 -4 0 -4 -28z"/>
<path d="M371 2490 c1 -25 3 -36 6 -25 2 11 6 30 8 42 3 12 13 24 23 26 9 3 5
4 -10 4 -26 -1 -28 -4 -27 -47z"/>
<path d="M442 2528 c-15 -15 -15 -51 0 -66 13 -13 54 -16 62 -4 2 4 -7 8 -21
7 -14 0 -28 6 -30 13 -3 8 6 12 26 12 19 0 31 5 31 13 0 18 -21 37 -40 37 -9
0 -21 -5 -28 -12z m52 -13 c4 -11 -1 -15 -19 -15 -24 0 -32 10 -18 23 11 12
31 8 37 -8z"/>
<path d="M542 2528 c-15 -15 -15 -51 0 -66 14 -14 44 -16 52 -3 4 5 -3 7 -15
4 -26 -7 -38 10 -31 44 4 20 9 24 28 20 13 -2 21 0 18 4 -8 13 -38 11 -52 -3z"/>
<path d="M852 2528 c-28 -28 -7 -78 33 -78 12 0 26 5 33 12 7 7 12 21 12 33 0
12 -5 26 -12 33 -7 7 -21 12 -33 12 -12 0 -26 -5 -33 -12z m53 -33 c0 -23 -4
-30 -20 -30 -21 0 -31 25 -21 51 11 28 41 12 41 -21z"/>
<path d="M957 2533 c-14 -13 -6 -30 19 -41 28 -13 23 -37 -7 -29 -11 3 -17 1
-13 -4 9 -15 44 -10 51 8 4 11 -1 22 -15 31 -28 18 -29 36 -2 29 11 -3 18 -1
14 4 -6 10 -38 12 -47 2z"/>
<path d="M1107 2533 c-14 -13 -6 -30 19 -41 28 -13 23 -37 -7 -29 -11 3 -17 1
-13 -4 9 -15 44 -10 51 8 4 11 -1 22 -15 31 -28 18 -29 36 -2 29 11 -3 18 -1
14 4 -6 10 -38 12 -47 2z"/>
<path d="M2030 2270 c0 -33 4 -60 10 -60 6 0 10 27 10 60 0 33 -4 60 -10 60
-6 0 -10 -27 -10 -60z"/>
<path d="M1613 2303 c-4 -11 3 -24 22 -38 30 -25 26 -50 -8 -41 -14 3 -17 2
-10 -5 17 -17 48 -6 51 17 2 14 -6 27 -23 38 -28 18 -24 41 6 33 11 -3 17 -1
13 4 -9 15 -44 10 -51 -8z"/>
<path d="M1697 2313 c19 -4 23 -12 26 -56 l3 -52 2 52 c2 45 5 52 25 56 12 2
0 4 -28 4 -27 0 -40 -2 -28 -4z"/>
<path d="M1882 2293 c-8 -8 -9 -13 -2 -13 5 0 10 -16 10 -35 0 -27 4 -35 18
-34 10 0 12 3 5 6 -15 5 -18 60 -4 65 5 2 4 8 -3 14 -8 8 -15 7 -24 -3z"/>
<path d="M1790 2275 c-26 -32 13 -81 48 -59 21 14 28 54 10 65 -20 13 -44 11
-58 -6z m54 -10 c8 -22 -4 -45 -24 -45 -20 0 -32 23 -24 45 4 8 14 15 24 15
10 0 20 -7 24 -15z"/>
<path d="M1945 2280 c-4 -7 2 -9 19 -4 16 4 26 2 26 -4 0 -6 -10 -12 -22 -14
-15 -2 -23 -10 -23 -23 0 -15 8 -21 33 -23 28 -3 32 0 32 22 0 13 -3 31 -6 40
-7 18 -49 22 -59 6z m45 -39 c0 -14 -18 -23 -30 -16 -6 4 -8 11 -5 16 8 12 35
12 35 0z"/>
<path d="M143 1760 c0 -41 2 -59 4 -38 4 35 24 55 44 42 5 -3 9 -22 9 -42 1
-28 3 -33 10 -21 20 35 -2 83 -36 76 -19 -3 -24 1 -27 27 -2 17 -4 -3 -4 -44z"/>
<path d="M52 1808 c-19 -19 -15 -31 19 -59 36 -29 32 -54 -8 -46 -16 3 -21 1
-14 -6 5 -5 21 -7 35 -3 36 9 36 52 1 68 -34 15 -35 52 0 46 13 -3 22 -1 19 3
-8 13 -38 11 -52 -3z"/>
<path d="M581 1803 c0 -13 -5 -23 -10 -23 -5 0 -7 -9 -4 -20 3 -13 0 -20 -8
-20 -10 0 -11 -3 -3 -8 7 -4 14 -16 17 -27 4 -18 5 -18 6 3 0 12 7 22 15 22 8
0 17 -10 19 -22 l4 -23 2 23 c0 12 5 22 11 22 5 0 7 7 3 16 -3 9 0 20 8 25 12
7 12 9 0 9 -8 0 -11 7 -8 20 3 11 1 20 -4 20 -5 0 -9 -9 -9 -20 0 -27 -28 -25
-33 3 l-4 22 -2 -22z m33 -48 c-4 -8 -12 -15 -20 -15 -8 0 -11 6 -8 15 4 8 12
15 20 15 8 0 11 -6 8 -15z"/>
<path d="M665 1810 c-4 -7 1 -9 18 -5 14 4 28 2 31 -3 11 -17 -5 -42 -28 -43
-19 -1 -18 -2 4 -8 36 -10 34 -46 -2 -46 -14 1 -24 -3 -22 -7 9 -13 51 -9 64
7 7 9 9 22 4 32 -4 10 -8 32 -8 48 -1 25 -6 31 -28 33 -14 2 -29 -2 -33 -8z"/>
<path d="M822 1753 c0 -38 3 -53 5 -35 5 41 31 42 46 2 6 -16 15 -30 20 -30 9
0 -1 40 -13 54 -5 5 -2 15 6 23 22 22 1 53 -36 53 l-30 0 2 -67z m53 32 c0
-13 -8 -21 -22 -23 -19 -3 -23 1 -23 23 0 22 4 26 23 23 14 -2 22 -10 22 -23z"/>
<path d="M1530 1810 c0 -5 5 -10 11 -10 5 0 7 5 4 10 -3 6 -8 10 -11 10 -2 0
-4 -4 -4 -10z"/>
<path d="M448 1789 c-2 -7 -1 -30 2 -53 4 -31 10 -41 25 -43 11 -2 14 0 8 3
-16 7 -17 74 -2 74 6 0 4 7 -5 15 -18 18 -23 19 -28 4z"/>
<path d="M1108 1789 c-2 -7 -1 -30 2 -53 4 -31 10 -41 25 -43 11 -2 14 0 8 3
-16 7 -17 74 -2 74 6 0 4 7 -5 15 -18 18 -23 19 -28 4z"/>
<path d="M1458 1789 c-2 -7 -1 -30 2 -53 4 -31 10 -41 25 -43 11 -2 14 0 8 3
-16 7 -17 74 -2 74 6 0 4 7 -5 15 -18 18 -23 19 -28 4z"/>
<path d="M252 1768 c-15 -15 -15 -51 0 -66 13 -13 54 -16 62 -4 2 4 -7 8 -21
7 -14 0 -28 6 -30 13 -3 8 6 12 26 12 24 0 31 4 31 19 0 29 -45 42 -68 19z
m52 -13 c4 -11 -1 -15 -19 -15 -24 0 -32 10 -18 23 11 12 31 8 37 -8z"/>
<path d="M352 1768 c-15 -15 -15 -51 0 -66 13 -13 54 -16 62 -4 2 4 -7 8 -21
7 -14 0 -28 6 -30 13 -3 8 6 12 26 12 24 0 31 4 31 19 0 29 -45 42 -68 19z
m52 -13 c4 -11 -1 -15 -19 -15 -24 0 -32 10 -18 23 11 12 31 8 37 -8z"/>
<path d="M932 1768 c-15 -15 -15 -51 0 -66 13 -13 54 -16 62 -4 2 4 -7 8 -21
7 -14 0 -28 6 -30 13 -3 8 6 12 26 12 24 0 31 4 31 19 0 29 -45 42 -68 19z
m52 -13 c4 -11 -1 -15 -19 -15 -24 0 -32 10 -18 23 11 12 31 8 37 -8z"/>
<path d="M1027 1773 c-14 -13 -6 -30 19 -41 28 -13 23 -37 -7 -29 -11 3 -17 1
-13 -4 9 -15 44 -10 51 8 4 11 -1 22 -15 31 -28 18 -29 36 -2 29 11 -3 18 -1
14 4 -6 10 -38 12 -47 2z"/>
<path d="M1182 1768 c-28 -28 -7 -78 33 -78 12 0 26 5 33 12 7 7 12 21 12 33
0 12 -5 26 -12 33 -7 7 -21 12 -33 12 -12 0 -26 -5 -33 -12z m53 -33 c0 -23
-4 -30 -20 -30 -21 0 -31 25 -21 51 11 28 41 12 41 -21z"/>
<path d="M1291 1730 c1 -25 3 -36 6 -25 2 11 6 30 8 42 3 12 13 24 23 26 9 3
5 4 -10 4 -26 -1 -28 -4 -27 -47z"/>
<path d="M1366 1772 c-3 -5 4 -8 16 -8 34 1 32 -21 -2 -28 -23 -4 -31 -11 -28
-23 2 -13 13 -18 38 -18 32 0 35 2 35 30 0 17 -4 36 -9 43 -10 14 -42 16 -50
4z m42 -54 c-7 -19 -38 -22 -38 -4 0 10 9 16 21 16 12 0 19 -5 17 -12z"/>
<path d="M1533 1735 c0 -27 2 -38 4 -22 2 15 2 37 0 50 -2 12 -4 0 -4 -28z"/>
<path d="M1582 1768 c-7 -7 -12 -21 -12 -33 0 -12 5 -26 12 -33 7 -7 21 -12
33 -12 12 0 26 5 33 12 7 7 12 21 12 33 0 12 -5 26 -12 33 -7 7 -21 12 -33 12
-12 0 -26 -5 -33 -12z m53 -33 c0 -23 -4 -30 -20 -30 -21 0 -31 25 -21 51 11
28 41 12 41 -21z"/>
<path d="M1691 1730 l2 -45 6 40 c5 31 10 40 26 40 16 0 21 -9 26 -40 3 -22 7
-35 8 -30 8 33 8 42 0 63 -7 17 -15 22 -39 20 -29 -2 -30 -4 -29 -48z"/>
<path d="M468 1663 c244 -2 640 -2 880 0 240 1 41 2 -443 2 -484 0 -681 -1
-437 -2z"/>
<path d="M750 1560 c0 -5 5 -10 10 -10 6 0 10 5 10 10 0 6 -4 10 -10 10 -5 0
-10 -4 -10 -10z"/>
<path d="M56 1544 c-20 -20 -20 -58 0 -78 16 -17 49 -21 58 -8 2 4 -7 8 -21 7
-30 0 -45 29 -32 64 8 20 14 22 40 17 18 -3 28 -2 24 4 -10 15 -52 12 -69 -6z"/>
<path d="M1036 1544 c-20 -20 -20 -58 0 -78 16 -17 49 -21 58 -8 2 4 -8 8 -22
7 -25 0 -27 3 -27 40 0 37 2 40 27 40 14 -1 24 3 22 7 -9 13 -42 9 -58 -8z"/>
<path d="M402 1534 c-7 -8 -8 -14 -2 -14 5 0 10 -16 10 -35 0 -27 4 -35 18
-34 10 0 12 3 5 6 -21 8 -16 63 5 64 13 0 14 2 2 6 -8 3 -17 9 -20 13 -3 4
-11 2 -18 -6z"/>
<path d="M692 1534 c-7 -8 -8 -14 -2 -14 5 0 10 -16 10 -35 0 -27 4 -35 18
-34 10 0 12 3 5 6 -21 8 -16 63 5 64 13 0 14 2 2 6 -8 3 -17 9 -20 13 -3 4
-11 2 -18 -6z"/>
<path d="M1292 1534 c-7 -8 -8 -14 -2 -14 5 0 10 -16 10 -35 0 -27 4 -35 18
-34 10 0 12 3 5 6 -21 8 -16 63 5 64 13 0 14 2 2 6 -8 3 -17 9 -20 13 -3 4
-11 2 -18 -6z"/>
<path d="M150 1515 c-26 -32 13 -81 48 -59 21 14 28 54 10 65 -20 13 -44 11
-58 -6z m54 -10 c8 -22 -4 -45 -24 -45 -10 0 -20 7 -24 15 -8 22 4 45 24 45
10 0 20 -7 24 -15z"/>
<path d="M240 1489 c0 -47 17 -52 22 -7 4 46 28 49 28 4 0 -20 5 -36 10 -36
12 0 13 49 2 66 -4 7 -19 12 -34 12 -26 0 -28 -4 -28 -39z"/>
<path d="M334 1518 c-4 -6 2 -19 14 -29 27 -22 28 -33 2 -26 -11 3 -20 1 -20
-4 0 -5 9 -9 20 -9 31 0 35 27 9 51 l-24 21 23 -5 c12 -3 20 -1 16 4 -7 13
-31 11 -40 -3z"/>
<path d="M460 1490 c0 -22 5 -40 10 -40 6 0 10 13 10 30 0 17 7 33 18 39 14 9
13 10 -10 11 -26 0 -28 -3 -28 -40z"/>
<path d="M520 1503 c0 -40 12 -53 43 -51 24 2 27 6 27 40 0 46 -17 51 -22 6
-4 -46 -28 -49 -28 -4 0 20 -4 36 -10 36 -5 0 -10 -12 -10 -27z"/>
<path d="M622 1518 c-25 -25 -6 -68 30 -68 10 0 18 4 18 9 0 5 -9 7 -19 4 -13
-3 -21 2 -26 16 -8 28 3 44 26 38 11 -3 17 -1 13 4 -7 13 -28 11 -42 -3z"/>
<path d="M750 1490 c0 -22 5 -40 10 -40 6 0 10 18 10 40 0 22 -4 40 -10 40 -5
0 -10 -18 -10 -40z"/>
<path d="M800 1515 c-26 -32 13 -81 48 -59 21 14 28 54 10 65 -20 13 -44 11
-58 -6z m54 -10 c8 -22 -4 -45 -24 -45 -20 0 -32 23 -24 45 4 8 14 15 24 15
10 0 20 -7 24 -15z"/>
<path d="M890 1489 c0 -47 17 -53 22 -7 4 46 28 49 28 4 0 -20 5 -36 11 -36 6
0 9 16 7 38 -3 34 -6 37 -35 39 -32 1 -33 0 -33 -38z"/>
<path d="M1130 1515 c-26 -32 13 -81 48 -59 34 22 22 74 -18 74 -10 0 -23 -7
-30 -15z m54 -10 c8 -22 -4 -45 -24 -45 -20 0 -32 23 -24 45 4 8 14 15 24 15
10 0 20 -7 24 -15z"/>
<path d="M1224 1518 c-4 -6 2 -19 14 -29 27 -22 28 -33 2 -26 -11 3 -20 1 -20
-5 0 -5 10 -8 22 -6 30 4 35 34 8 43 -11 3 -18 11 -14 16 3 6 13 8 21 5 8 -3
11 -1 8 4 -8 14 -32 13 -41 -2z"/>
<path d="M1354 1518 c-4 -6 2 -19 14 -29 27 -22 28 -33 2 -26 -11 3 -20 1 -20
-4 0 -5 9 -9 20 -9 31 0 35 27 9 51 l-24 21 23 -5 c12 -3 20 -1 16 4 -7 13
-31 11 -40 -3z"/>
<path d="M6761 1319 c-28 -23 -22 -45 15 -59 32 -13 26 -35 -9 -35 -31 1 -32
-1 -12 -21 8 -9 15 -11 15 -6 0 5 9 12 20 15 29 8 26 45 -5 57 -34 13 -34 44
0 38 22 -5 24 -3 13 11 -7 9 -12 17 -13 18 0 1 -11 -7 -24 -18z"/>
<path d="M255 1320 c-3 -6 -4 -19 0 -29 3 -11 1 -22 -5 -26 -14 -9 -13 -45 3
-47 39 -5 95 -3 85 3 -6 4 -8 16 -5 28 3 12 1 21 -4 21 -5 0 -9 -8 -9 -17 0
-16 -1 -16 -17 -1 -13 14 -14 20 -4 32 7 9 11 23 7 31 -6 17 -42 20 -51 5z
m45 -14 c0 -19 -27 -28 -33 -11 -7 15 1 25 20 25 7 0 13 -6 13 -14z m-12 -58
c17 -17 15 -28 -7 -28 -19 0 -35 23 -24 34 9 9 18 7 31 -6z"/>
<path d="M53 1265 c-12 -30 -17 -55 -13 -55 4 0 10 7 14 15 3 8 17 15 31 15
16 0 25 -6 25 -15 0 -8 9 -15 19 -15 10 0 21 7 25 15 3 8 17 15 31 15 16 0 25
-6 25 -15 0 -8 5 -15 10 -15 13 0 13 -4 -9 55 -10 27 -23 51 -29 53 -5 1 -18
-20 -27 -48 -19 -57 -23 -57 -46 3 -9 23 -21 43 -26 44 -6 2 -19 -21 -30 -52z
m43 -12 c-2 -3 -11 -3 -19 -1 -11 2 -12 9 -5 28 l10 25 9 -24 c5 -13 7 -26 5
-28z m100 0 c-2 -3 -11 -3 -19 -1 -11 2 -12 9 -5 28 l10 25 9 -24 c5 -13 7
-26 5 -28z"/>
<path d="M370 1265 l0 -55 33 1 c30 2 30 2 5 6 -35 5 -39 40 -5 46 l22 4 -22
2 c-35 2 -31 39 5 44 25 4 25 4 -5 6 l-33 1 0 -55z"/>
<path d="M7838 1253 c6 -2 18 -2 25 0 6 3 1 5 -13 5 -14 0 -19 -2 -12 -5z"/>
<path d="M6761 1079 c-28 -23 -22 -45 15 -59 32 -13 26 -35 -9 -35 -31 1 -32
-1 -12 -21 8 -9 15 -11 15 -6 0 5 9 12 20 15 29 8 26 45 -5 57 -34 13 -34 44
0 38 22 -5 24 -3 13 11 -7 9 -12 17 -13 18 0 1 -11 -7 -24 -18z"/>
<path d="M230 1071 c0 -13 -8 -21 -22 -23 -19 -2 -23 -9 -23 -38 0 -33 2 -35
33 -36 l32 -1 0 59 c0 32 -4 58 -10 58 -5 0 -10 -9 -10 -19z m-2 -58 c-4 -33
-24 -41 -33 -14 -8 25 1 41 21 41 11 0 14 -8 12 -27z"/>
<path d="M270 1080 c0 -5 5 -10 10 -10 6 0 10 5 10 10 0 6 -4 10 -10 10 -5 0
-10 -4 -10 -10z"/>
<path d="M53 1025 c0 -33 2 -45 4 -27 2 18 2 45 0 60 -2 15 -4 0 -4 -33z"/>
<path d="M656 1064 c-20 -20 -20 -58 0 -78 17 -17 59 -22 68 -7 3 5 -9 8 -27
7 -31 -1 -32 0 -32 39 0 37 2 40 28 40 15 -1 27 3 27 7 0 14 -48 8 -64 -8z"/>
<path d="M542 1054 c-7 -8 -8 -14 -2 -14 5 0 10 -16 10 -35 0 -27 4 -35 18
-34 10 0 12 3 5 6 -21 8 -16 63 5 64 13 0 14 2 2 6 -8 3 -17 9 -20 13 -3 4
-11 2 -18 -6z"/>
<path d="M912 1054 c-7 -8 -8 -14 -2 -14 5 0 10 -16 10 -35 0 -27 4 -35 18
-34 10 0 12 3 5 6 -21 8 -16 63 5 64 13 0 14 2 2 6 -8 3 -17 9 -20 13 -3 4
-11 2 -18 -6z"/>
<path d="M90 1009 c0 -47 17 -53 22 -7 4 46 28 49 28 4 0 -20 5 -36 11 -36 6
0 9 16 7 38 -3 34 -6 37 -35 39 -32 1 -33 0 -33 -38z"/>
<path d="M270 1010 c0 -22 5 -40 10 -40 6 0 10 18 10 40 0 22 -4 40 -10 40 -5
0 -10 -18 -10 -40z"/>
<path d="M310 1010 c0 -22 5 -40 10 -40 6 0 10 13 10 30 0 17 7 33 18 39 14 9
13 10 -10 11 -26 0 -28 -3 -28 -40z"/>
<path d="M382 1038 c-15 -15 -15 -41 0 -56 14 -14 44 -16 52 -3 3 4 -5 6 -18
4 -15 -3 -25 1 -29 11 -5 12 0 16 24 16 24 0 30 4 27 18 -4 21 -39 27 -56 10z
m43 -8 c4 -6 -5 -10 -20 -10 -15 0 -24 4 -20 10 3 6 12 10 20 10 8 0 17 -4 20
-10z"/>
<path d="M472 1038 c-25 -25 -6 -68 30 -68 10 0 18 4 18 9 0 5 -8 7 -19 4 -21
-5 -34 18 -24 43 3 9 13 14 24 11 11 -3 17 -1 13 4 -7 13 -28 11 -42 -3z"/>
<path d="M750 1035 c-26 -32 13 -81 48 -59 21 14 28 54 10 65 -20 13 -44 11
-58 -6z m54 -10 c8 -22 -4 -45 -24 -45 -20 0 -32 23 -24 45 4 8 14 15 24 15
10 0 20 -7 24 -15z"/>
<path d="M844 1038 c-4 -6 2 -19 14 -29 27 -22 28 -33 2 -26 -11 3 -20 1 -20
-4 0 -5 9 -9 20 -9 27 0 38 30 17 42 -21 11 -22 32 -1 24 8 -3 12 -2 9 4 -8
14 -32 13 -41 -2z"/>
<path d="M974 1038 c-4 -6 2 -19 14 -29 27 -22 28 -33 2 -26 -11 3 -20 1 -20
-5 0 -5 10 -8 22 -6 30 4 35 34 9 43 -27 8 -27 29 -1 22 11 -3 18 -1 14 4 -7
13 -31 11 -40 -3z"/>
<path d="M7838 1013 c6 -2 18 -2 25 0 6 3 1 5 -13 5 -14 0 -19 -2 -12 -5z"/>
<path d="M2030 790 c0 -33 4 -60 10 -60 6 0 10 27 10 60 0 33 -4 60 -10 60 -6
0 -10 -27 -10 -60z"/>
<path d="M1613 823 c-4 -11 3 -24 22 -38 30 -25 26 -50 -8 -41 -14 3 -17 2
-10 -5 17 -17 48 -6 51 17 2 14 -6 27 -23 38 -28 18 -24 41 6 33 11 -3 17 -1
13 4 -9 15 -44 10 -51 -8z"/>
<path d="M1697 833 c19 -4 23 -12 26 -56 l3 -52 2 52 c2 45 5 52 25 56 12 2 0
4 -28 4 -27 0 -40 -2 -28 -4z"/>
<path d="M1882 813 c-8 -8 -9 -13 -2 -13 5 0 10 -16 10 -35 0 -27 4 -35 18
-34 10 0 12 3 5 6 -15 5 -18 60 -4 65 5 2 4 8 -3 14 -8 8 -15 7 -24 -3z"/>
<path d="M1790 795 c-26 -32 13 -81 48 -59 34 22 22 74 -18 74 -10 0 -23 -7
-30 -15z m54 -10 c8 -22 -4 -45 -24 -45 -20 0 -32 23 -24 45 4 8 14 15 24 15
10 0 20 -7 24 -15z"/>
<path d="M1945 800 c-4 -7 2 -9 19 -4 16 4 26 2 26 -4 0 -6 -10 -12 -22 -14
-15 -2 -23 -10 -23 -23 0 -15 8 -21 33 -23 28 -3 32 0 32 22 0 13 -3 31 -6 40
-7 18 -49 22 -59 6z m45 -39 c0 -14 -18 -23 -30 -16 -6 4 -8 11 -5 16 8 12 35
12 35 0z"/>
<path d="M1488 319 c-26 -15 -24 -75 3 -89 34 -19 64 -9 67 23 3 23 0 27 -22
27 -14 0 -26 -4 -26 -10 0 -5 7 -10 15 -10 8 0 15 -5 15 -11 0 -6 -10 -9 -22
-7 -18 2 -23 10 -23 33 0 27 3 30 33 30 17 0 31 4 29 10 -5 14 -49 17 -69 4z"/>
<path d="M1570 320 c0 -5 7 -10 15 -10 11 0 15 -12 15 -45 0 -33 4 -45 15 -45
11 0 15 12 15 45 0 33 4 45 15 45 8 0 15 5 15 10 0 6 -20 10 -45 10 -25 0 -45
-4 -45 -10z"/>
<path d="M1686 317 c-12 -9 -17 -23 -14 -46 4 -43 27 -59 65 -45 51 17 41 104
-11 104 -12 0 -30 -6 -40 -13z m59 -42 c0 -21 -5 -31 -19 -33 -26 -5 -40 12
-32 43 5 20 12 26 29 23 17 -2 22 -10 22 -33z"/>
<path d="M1780 320 c0 -5 7 -10 15 -10 11 0 15 -12 15 -45 0 -33 4 -45 15 -45
11 0 15 12 15 45 0 33 4 45 15 45 8 0 15 5 15 10 0 6 -20 10 -45 10 -25 0 -45
-4 -45 -10z"/>
<path d="M1893 278 c-14 -35 -17 -54 -10 -57 6 -2 13 1 15 8 5 14 49 14 54 -1
2 -6 9 -9 15 -7 14 5 -25 109 -42 109 -7 0 -21 -24 -32 -52z m46 -10 c1 -5 -6
-8 -15 -8 -11 0 -14 5 -10 16 3 9 6 21 7 27 0 12 17 -20 18 -35z"/>
<path d="M1990 275 l0 -55 35 0 c19 0 35 5 35 10 0 6 -9 10 -20 10 -17 0 -20
7 -20 45 0 33 -4 45 -15 45 -12 0 -15 -13 -15 -55z"/>
</g>
</svg>
